<svg width="90" height="90" viewBox="0 0 90 90" fill="none" xmlns="http://www.w3.org/2000/svg">
<g filter="url(#filter0_d_923_303)">
<rect x="5" y="5" width="80" height="80" rx="24" fill="url(#paint0_radial_923_303)"/>
</g>
<g clip-path="url(#clip0_923_303)">
<mask id="path-2-outside-1_923_303" maskUnits="userSpaceOnUse" x="40.9607" y="64.811" width="6" height="3" fill="black">
<rect fill="white" x="40.9607" y="64.811" width="6" height="3"/>
<path d="M45.5592 66.7787H42.4456C42.1778 66.7787 41.9607 66.5621 41.9607 66.2949C41.9607 66.0276 42.1778 65.811 42.4456 65.811H45.5592C45.827 65.811 46.044 66.0276 46.044 66.2949C46.044 66.5621 45.8269 66.7787 45.5592 66.7787Z"/>
</mask>
<path d="M45.5592 66.7787H42.4456C42.1778 66.7787 41.9607 66.5621 41.9607 66.2949C41.9607 66.0276 42.1778 65.811 42.4456 65.811H45.5592C45.827 65.811 46.044 66.0276 46.044 66.2949C46.044 66.5621 45.8269 66.7787 45.5592 66.7787Z" fill="#1ACDB8"/>
<path d="M45.5592 66.7787H42.4456C42.1778 66.7787 41.9607 66.5621 41.9607 66.2949C41.9607 66.0276 42.1778 65.811 42.4456 65.811H45.5592C45.827 65.811 46.044 66.0276 46.044 66.2949C46.044 66.5621 45.8269 66.7787 45.5592 66.7787Z" stroke="#1ACDB8" stroke-width="0.4" mask="url(#path-2-outside-1_923_303)"/>
<mask id="path-3-outside-2_923_303" maskUnits="userSpaceOnUse" x="42.4677" y="57.3191" width="3" height="3" fill="black">
<rect fill="white" x="42.4677" y="57.3191" width="3" height="3"/>
<path d="M44.5585 58.6484C44.4249 58.363 44.0845 58.2396 43.7982 58.3726C43.5118 58.5057 43.3878 58.845 43.5214 59.1304C43.6549 59.4158 43.9953 59.5392 44.2817 59.4062C44.5681 59.2731 44.692 58.9339 44.5585 58.6484Z"/>
</mask>
<path d="M44.5585 58.6484C44.4249 58.363 44.0845 58.2396 43.7982 58.3726C43.5118 58.5057 43.3878 58.845 43.5214 59.1304C43.6549 59.4158 43.9953 59.5392 44.2817 59.4062C44.5681 59.2731 44.692 58.9339 44.5585 58.6484Z" fill="#1ACDB8"/>
<path d="M44.5585 58.6484C44.4249 58.363 44.0845 58.2396 43.7982 58.3726C43.5118 58.5057 43.3878 58.845 43.5214 59.1304C43.6549 59.4158 43.9953 59.5392 44.2817 59.4062C44.5681 59.2731 44.692 58.9339 44.5585 58.6484Z" stroke="#1ACDB8" stroke-width="0.4" mask="url(#path-3-outside-2_923_303)"/>
<mask id="path-4-outside-3_923_303" maskUnits="userSpaceOnUse" x="38.3475" y="53.2848" width="9" height="9" fill="black">
<rect fill="white" x="38.3475" y="53.2848" width="9" height="9"/>
<path d="M42.6702 61.7399L39.4103 55.9826C39.2786 55.7499 39.3608 55.4548 39.594 55.3232C39.8274 55.1919 40.1228 55.2738 40.2547 55.5065L43.2939 60.8744L45.9388 59.6452L42.8422 55.0384C42.6931 54.8164 42.7524 54.5158 42.9748 54.3669C43.1972 54.2179 43.4984 54.2773 43.6476 54.4992L47.0598 59.5756C47.223 59.8185 47.1267 60.1608 46.8618 60.2838L43.297 61.9405C43.231 61.9712 42.8828 62.1914 42.6702 61.7399Z"/>
</mask>
<path d="M42.6702 61.7399L39.4103 55.9826C39.2786 55.7499 39.3608 55.4548 39.594 55.3232C39.8274 55.1919 40.1228 55.2738 40.2547 55.5065L43.2939 60.8744L45.9388 59.6452L42.8422 55.0384C42.6931 54.8164 42.7524 54.5158 42.9748 54.3669C43.1972 54.2179 43.4984 54.2773 43.6476 54.4992L47.0598 59.5756C47.223 59.8185 47.1267 60.1608 46.8618 60.2838L43.297 61.9405C43.231 61.9712 42.8828 62.1914 42.6702 61.7399Z" fill="#1ACDB8"/>
<path d="M42.6702 61.7399L39.4103 55.9826C39.2786 55.7499 39.3608 55.4548 39.594 55.3232C39.8274 55.1919 40.1228 55.2738 40.2547 55.5065L43.2939 60.8744L45.9388 59.6452L42.8422 55.0384C42.6931 54.8164 42.7524 54.5158 42.9748 54.3669C43.1972 54.2179 43.4984 54.2773 43.6476 54.4992L47.0598 59.5756C47.223 59.8185 47.1267 60.1608 46.8618 60.2838L43.297 61.9405C43.231 61.9712 42.8828 62.1914 42.6702 61.7399Z" stroke="#1ACDB8" stroke-width="0.4" mask="url(#path-4-outside-3_923_303)"/>
<mask id="path-5-outside-4_923_303" maskUnits="userSpaceOnUse" x="57.5563" y="49.8684" width="11" height="11" fill="black">
<rect fill="white" x="57.5563" y="49.8684" width="11" height="11"/>
<path d="M63.021 59.7934C60.5592 59.7934 58.5563 57.7916 58.5563 55.331C58.5563 52.8703 60.5592 50.8684 63.021 50.8684C65.4829 50.8684 67.4858 52.8703 67.4858 55.331C67.4858 57.7916 65.4829 59.7934 63.021 59.7934ZM63.021 51.8363C61.0938 51.8363 59.526 53.404 59.526 55.3311C59.526 57.258 61.0938 58.8258 63.021 58.8258C64.9482 58.8258 66.5161 57.2581 66.5161 55.3311C66.5161 53.404 64.9482 51.8363 63.021 51.8363Z"/>
</mask>
<path d="M63.021 59.7934C60.5592 59.7934 58.5563 57.7916 58.5563 55.331C58.5563 52.8703 60.5592 50.8684 63.021 50.8684C65.4829 50.8684 67.4858 52.8703 67.4858 55.331C67.4858 57.7916 65.4829 59.7934 63.021 59.7934ZM63.021 51.8363C61.0938 51.8363 59.526 53.404 59.526 55.3311C59.526 57.258 61.0938 58.8258 63.021 58.8258C64.9482 58.8258 66.5161 57.2581 66.5161 55.3311C66.5161 53.404 64.9482 51.8363 63.021 51.8363Z" fill="#1ACDB8"/>
<path d="M63.021 59.7934C60.5592 59.7934 58.5563 57.7916 58.5563 55.331C58.5563 52.8703 60.5592 50.8684 63.021 50.8684C65.4829 50.8684 67.4858 52.8703 67.4858 55.331C67.4858 57.7916 65.4829 59.7934 63.021 59.7934ZM63.021 51.8363C61.0938 51.8363 59.526 53.404 59.526 55.3311C59.526 57.258 61.0938 58.8258 63.021 58.8258C64.9482 58.8258 66.5161 57.2581 66.5161 55.3311C66.5161 53.404 64.9482 51.8363 63.021 51.8363Z" stroke="#1ACDB8" stroke-width="0.4" mask="url(#path-5-outside-4_923_303)"/>
<mask id="path-6-outside-5_923_303" maskUnits="userSpaceOnUse" x="39.12" y="22.0065" width="11" height="11" fill="black">
<rect fill="white" x="39.12" y="22.0065" width="11" height="11"/>
<path d="M44.5849 31.9314C42.1229 31.9314 40.12 29.9296 40.12 27.4689C40.12 25.0083 42.1229 23.0065 44.5849 23.0065C47.0467 23.0065 49.0496 25.0083 49.0496 27.4689C49.0496 29.9296 47.0467 31.9314 44.5849 31.9314ZM44.5849 23.9743C42.6576 23.9743 41.0897 25.542 41.0897 27.469C41.0897 29.396 42.6576 30.9637 44.5849 30.9637C46.5121 30.9637 48.0799 29.396 48.0799 27.469C48.0799 25.542 46.512 23.9743 44.5849 23.9743Z"/>
</mask>
<path d="M44.5849 31.9314C42.1229 31.9314 40.12 29.9296 40.12 27.4689C40.12 25.0083 42.1229 23.0065 44.5849 23.0065C47.0467 23.0065 49.0496 25.0083 49.0496 27.4689C49.0496 29.9296 47.0467 31.9314 44.5849 31.9314ZM44.5849 23.9743C42.6576 23.9743 41.0897 25.542 41.0897 27.469C41.0897 29.396 42.6576 30.9637 44.5849 30.9637C46.5121 30.9637 48.0799 29.396 48.0799 27.469C48.0799 25.542 46.512 23.9743 44.5849 23.9743Z" fill="#1ACDB8"/>
<path d="M44.5849 31.9314C42.1229 31.9314 40.12 29.9296 40.12 27.4689C40.12 25.0083 42.1229 23.0065 44.5849 23.0065C47.0467 23.0065 49.0496 25.0083 49.0496 27.4689C49.0496 29.9296 47.0467 31.9314 44.5849 31.9314ZM44.5849 23.9743C42.6576 23.9743 41.0897 25.542 41.0897 27.469C41.0897 29.396 42.6576 30.9637 44.5849 30.9637C46.5121 30.9637 48.0799 29.396 48.0799 27.469C48.0799 25.542 46.512 23.9743 44.5849 23.9743Z" stroke="#1ACDB8" stroke-width="0.4" mask="url(#path-6-outside-5_923_303)"/>
<mask id="path-7-outside-6_923_303" maskUnits="userSpaceOnUse" x="24.1593" y="52.3558" width="39" height="17" fill="black">
<rect fill="white" x="24.1593" y="52.3558" width="39" height="17"/>
<path d="M62.2649 63.6467H60.6699L60.6701 60.9869C60.6701 60.7197 60.453 60.503 60.1852 60.503C59.9174 60.503 59.7003 60.7196 59.7003 60.9869L59.7001 63.6467H28.208L28.2086 53.8397C28.2086 53.5725 27.9916 53.3558 27.7237 53.3558C27.456 53.3558 27.2389 53.5724 27.2389 53.8397L27.2382 63.6467H25.6442C25.3764 63.6467 25.1593 63.8645 25.1593 64.1317C25.1593 66.7617 27.3032 68.9012 29.9383 68.9012H57.9708C60.6059 68.9012 62.7497 66.7617 62.7497 64.1305C62.7498 63.8633 62.5328 63.6467 62.2649 63.6467ZM57.9709 67.9335H29.9384C28.0021 67.9335 26.3985 66.4842 26.1598 64.6144H61.7496C61.5111 66.4836 59.9075 67.9335 57.9709 67.9335Z"/>
</mask>
<path d="M62.2649 63.6467H60.6699L60.6701 60.9869C60.6701 60.7197 60.453 60.503 60.1852 60.503C59.9174 60.503 59.7003 60.7196 59.7003 60.9869L59.7001 63.6467H28.208L28.2086 53.8397C28.2086 53.5725 27.9916 53.3558 27.7237 53.3558C27.456 53.3558 27.2389 53.5724 27.2389 53.8397L27.2382 63.6467H25.6442C25.3764 63.6467 25.1593 63.8645 25.1593 64.1317C25.1593 66.7617 27.3032 68.9012 29.9383 68.9012H57.9708C60.6059 68.9012 62.7497 66.7617 62.7497 64.1305C62.7498 63.8633 62.5328 63.6467 62.2649 63.6467ZM57.9709 67.9335H29.9384C28.0021 67.9335 26.3985 66.4842 26.1598 64.6144H61.7496C61.5111 66.4836 59.9075 67.9335 57.9709 67.9335Z" fill="#1ACDB8"/>
<path d="M62.2649 63.6467H60.6699L60.6701 60.9869C60.6701 60.7197 60.453 60.503 60.1852 60.503C59.9174 60.503 59.7003 60.7196 59.7003 60.9869L59.7001 63.6467H28.208L28.2086 53.8397C28.2086 53.5725 27.9916 53.3558 27.7237 53.3558C27.456 53.3558 27.2389 53.5724 27.2389 53.8397L27.2382 63.6467H25.6442C25.3764 63.6467 25.1593 63.8645 25.1593 64.1317C25.1593 66.7617 27.3032 68.9012 29.9383 68.9012H57.9708C60.6059 68.9012 62.7497 66.7617 62.7497 64.1305C62.7498 63.8633 62.5328 63.6467 62.2649 63.6467ZM57.9709 67.9335H29.9384C28.0021 67.9335 26.3985 66.4842 26.1598 64.6144H61.7496C61.5111 66.4836 59.9075 67.9335 57.9709 67.9335Z" stroke="#1ACDB8" stroke-width="0.4" mask="url(#path-7-outside-6_923_303)"/>
<mask id="path-8-outside-7_923_303" maskUnits="userSpaceOnUse" x="36.3955" y="47.9355" width="3" height="3" fill="black">
<rect fill="white" x="36.3955" y="47.9355" width="3" height="3"/>
<path d="M37.8723 50.1423C37.3654 50.1423 37.2093 49.4323 37.6673 49.2197L38.1812 48.9809C38.4237 48.8682 38.7123 48.9729 38.8254 49.2152C38.9385 49.4574 38.8333 49.7453 38.5906 49.858L38.0767 50.0969C38.0104 50.1278 37.9408 50.1423 37.8723 50.1423Z"/>
</mask>
<path d="M37.8723 50.1423C37.3654 50.1423 37.2093 49.4323 37.6673 49.2197L38.1812 48.9809C38.4237 48.8682 38.7123 48.9729 38.8254 49.2152C38.9385 49.4574 38.8333 49.7453 38.5906 49.858L38.0767 50.0969C38.0104 50.1278 37.9408 50.1423 37.8723 50.1423Z" fill="#1ACDB8"/>
<path d="M37.8723 50.1423C37.3654 50.1423 37.2093 49.4323 37.6673 49.2197L38.1812 48.9809C38.4237 48.8682 38.7123 48.9729 38.8254 49.2152C38.9385 49.4574 38.8333 49.7453 38.5906 49.858L38.0767 50.0969C38.0104 50.1278 37.9408 50.1423 37.8723 50.1423Z" stroke="#1ACDB8" stroke-width="0.4" mask="url(#path-8-outside-7_923_303)"/>
<mask id="path-9-outside-8_923_303" maskUnits="userSpaceOnUse" x="36.9352" y="49.2574" width="3" height="3" fill="black">
<rect fill="white" x="36.9352" y="49.2574" width="3" height="3"/>
<path d="M38.412 51.4643C37.9051 51.4643 37.749 50.7543 38.207 50.5417L38.7209 50.3029C38.9635 50.19 39.252 50.2948 39.365 50.5372C39.4781 50.7794 39.373 51.0673 39.1302 51.18L38.6163 51.4189C38.5501 51.4498 38.4805 51.4643 38.412 51.4643Z"/>
</mask>
<path d="M38.412 51.4643C37.9051 51.4643 37.749 50.7543 38.207 50.5417L38.7209 50.3029C38.9635 50.19 39.252 50.2948 39.365 50.5372C39.4781 50.7794 39.373 51.0673 39.1302 51.18L38.6163 51.4189C38.5501 51.4498 38.4805 51.4643 38.412 51.4643Z" fill="#1ACDB8"/>
<path d="M38.412 51.4643C37.9051 51.4643 37.749 50.7543 38.207 50.5417L38.7209 50.3029C38.9635 50.19 39.252 50.2948 39.365 50.5372C39.4781 50.7794 39.373 51.0673 39.1302 51.18L38.6163 51.4189C38.5501 51.4498 38.4805 51.4643 38.412 51.4643Z" stroke="#1ACDB8" stroke-width="0.4" mask="url(#path-9-outside-8_923_303)"/>
<mask id="path-10-outside-9_923_303" maskUnits="userSpaceOnUse" x="37.6995" y="50.5537" width="3" height="3" fill="black">
<rect fill="white" x="37.6995" y="50.5537" width="3" height="3"/>
<path d="M39.1763 52.7605C38.6694 52.7605 38.5132 52.0507 38.9712 51.838L39.485 51.5991C39.7278 51.4862 40.0163 51.5911 40.1293 51.8333C40.2424 52.0757 40.1373 52.3636 39.8946 52.4763L39.3808 52.7151C39.3144 52.746 39.2448 52.7605 39.1763 52.7605Z"/>
</mask>
<path d="M39.1763 52.7605C38.6694 52.7605 38.5132 52.0507 38.9712 51.838L39.485 51.5991C39.7278 51.4862 40.0163 51.5911 40.1293 51.8333C40.2424 52.0757 40.1373 52.3636 39.8946 52.4763L39.3808 52.7151C39.3144 52.746 39.2448 52.7605 39.1763 52.7605Z" fill="#1ACDB8"/>
<path d="M39.1763 52.7605C38.6694 52.7605 38.5132 52.0507 38.9712 51.838L39.485 51.5991C39.7278 51.4862 40.0163 51.5911 40.1293 51.8333C40.2424 52.0757 40.1373 52.3636 39.8946 52.4763L39.3808 52.7151C39.3144 52.746 39.2448 52.7605 39.1763 52.7605Z" stroke="#1ACDB8" stroke-width="0.4" mask="url(#path-10-outside-9_923_303)"/>
<mask id="path-11-outside-10_923_303" maskUnits="userSpaceOnUse" x="21.501" y="35.2938" width="40" height="27" fill="black">
<rect fill="white" x="21.501" y="35.2938" width="40" height="27"/>
<path d="M58.8593 42.4748H51.3156C50.4127 40.902 49.384 39.4768 48.322 38.3429C47.4379 37.3988 45.793 35.8905 44.7084 36.3942C44.3575 36.5573 44.1623 36.891 44.0546 37.2479L42.4823 42.4748H31.4606C30.5098 41.5375 29.2038 40.9578 27.7643 40.9578C24.8621 40.9578 22.501 43.3127 22.501 46.2073C22.501 49.1019 24.8621 51.4568 27.7643 51.4568C28.5226 51.4568 29.2432 51.2947 29.8951 51.0056L29.9128 61.2636C29.9133 61.5305 30.1303 61.7466 30.3976 61.7466H30.3985C30.6664 61.7462 30.883 61.5292 30.8825 61.2619L30.8645 50.4458C32.1744 49.49 33.0274 47.9465 33.0274 46.2074C33.0274 46.1989 33.0268 46.1905 33.0267 46.182H39.7829C38.9907 46.8654 38.1438 47.4218 37.3934 47.7706L35.4555 48.6711C33.8015 49.4397 33.0597 51.4586 33.8337 53.1127C34.6148 54.7827 36.6137 55.5077 38.2888 54.729L40.2266 53.8286C42.2246 52.9001 45.5346 52.4737 47.6158 53.3676L52.5897 55.5035C53.3815 55.8597 54.0784 55.4895 54.3638 54.707C54.8791 53.294 54.5646 49.9703 53.089 46.182H57.0517V61.2629C57.0517 61.5302 57.2687 61.7467 57.5366 61.7467C57.8044 61.7467 58.0215 61.5302 58.0215 61.2629V45.698C58.0215 45.4308 57.8044 45.2142 57.5366 45.2142H52.69C52.4294 44.6137 52.1477 44.0231 51.845 43.4426H58.8591C59.3233 43.4426 59.701 43.8193 59.701 44.2822L59.7006 46.8069C59.7006 47.0742 59.9176 47.2909 60.1854 47.2909H60.1855C60.4532 47.2909 60.6704 47.0743 60.6704 46.807L60.6708 44.2822C60.671 43.2855 59.8582 42.4748 58.8593 42.4748ZM27.7643 50.489C25.3967 50.489 23.4707 48.5682 23.4707 46.2073C23.4707 43.8464 25.3967 41.9256 27.7643 41.9256C30.1317 41.9256 32.0578 43.8464 32.0578 46.2073C32.0578 48.5682 30.1317 50.489 27.7643 50.489ZM32.9318 45.2141C32.8085 44.5748 32.5676 43.977 32.2342 43.4425H42.0681C41.737 44.0603 41.29 44.6603 40.7823 45.2141H32.9318ZM34.7125 52.7032C34.1182 51.4547 34.7862 50.0053 36.0216 49.4755C36.384 51.0333 37.0716 52.5011 38.0359 53.7792C38.0359 53.7791 35.8121 55.0138 34.7125 52.7032ZM38.9352 53.3612C37.9437 52.0998 37.2537 50.625 36.9212 49.0574C36.9212 49.0574 38.4971 48.2955 38.8555 48.0717C39.2188 49.6874 39.928 51.2017 40.9362 52.5176C40.5344 52.6471 38.9352 53.3612 38.9352 53.3612ZM47.9993 52.4785C46.2689 51.7354 43.9329 51.7836 41.952 52.2389C40.8142 50.864 40.0487 49.2283 39.723 47.4758C41.2111 46.359 42.6344 44.7908 43.277 43.1333C43.6484 42.1774 43.8905 41.1589 44.1858 40.1773C44.6209 42.2541 45.589 44.8589 46.6615 47.1512C47.523 48.9925 48.9743 51.6693 50.4371 53.5254L47.9993 52.4785ZM48.2744 46.401C48.1613 46.1588 47.8731 46.0539 47.6301 46.1668L47.3488 46.2975L47.0857 45.7352L47.9387 45.3387C48.4932 45.0811 49.154 45.3209 49.4124 45.8729C49.6679 46.4192 49.422 47.0863 48.8763 47.3401L48.0223 47.737L47.7591 47.1744L48.0396 47.044C48.2824 46.9311 48.3874 46.6433 48.2744 46.401C48.3874 46.6433 48.1613 46.1588 48.2744 46.401ZM53.2639 54.6791C53.155 54.7307 52.472 54.5641 51.1205 52.8298C50.2528 51.7162 49.3363 50.2528 48.4638 48.5992L49.2856 48.2174C50.3104 47.7411 50.7709 46.4889 50.291 45.4636C49.8066 44.4283 48.5675 43.9787 47.5294 44.4615L46.7064 44.844C45.1884 41.1489 44.6776 38.3532 45.0092 37.4439C45.0439 37.3488 45.0826 37.2579 45.1963 37.2579C45.4931 37.2579 46.3436 37.6475 47.6138 39.0037C49.0487 40.5358 50.4253 42.6326 51.4897 44.9077C53.3698 48.9258 53.9726 52.951 53.4529 54.376C53.378 54.5807 53.2989 54.6629 53.2639 54.6791C53.2989 54.6629 53.1549 54.7306 53.2639 54.6791Z"/>
</mask>
<path d="M58.8593 42.4748H51.3156C50.4127 40.902 49.384 39.4768 48.322 38.3429C47.4379 37.3988 45.793 35.8905 44.7084 36.3942C44.3575 36.5573 44.1623 36.891 44.0546 37.2479L42.4823 42.4748H31.4606C30.5098 41.5375 29.2038 40.9578 27.7643 40.9578C24.8621 40.9578 22.501 43.3127 22.501 46.2073C22.501 49.1019 24.8621 51.4568 27.7643 51.4568C28.5226 51.4568 29.2432 51.2947 29.8951 51.0056L29.9128 61.2636C29.9133 61.5305 30.1303 61.7466 30.3976 61.7466H30.3985C30.6664 61.7462 30.883 61.5292 30.8825 61.2619L30.8645 50.4458C32.1744 49.49 33.0274 47.9465 33.0274 46.2074C33.0274 46.1989 33.0268 46.1905 33.0267 46.182H39.7829C38.9907 46.8654 38.1438 47.4218 37.3934 47.7706L35.4555 48.6711C33.8015 49.4397 33.0597 51.4586 33.8337 53.1127C34.6148 54.7827 36.6137 55.5077 38.2888 54.729L40.2266 53.8286C42.2246 52.9001 45.5346 52.4737 47.6158 53.3676L52.5897 55.5035C53.3815 55.8597 54.0784 55.4895 54.3638 54.707C54.8791 53.294 54.5646 49.9703 53.089 46.182H57.0517V61.2629C57.0517 61.5302 57.2687 61.7467 57.5366 61.7467C57.8044 61.7467 58.0215 61.5302 58.0215 61.2629V45.698C58.0215 45.4308 57.8044 45.2142 57.5366 45.2142H52.69C52.4294 44.6137 52.1477 44.0231 51.845 43.4426H58.8591C59.3233 43.4426 59.701 43.8193 59.701 44.2822L59.7006 46.8069C59.7006 47.0742 59.9176 47.2909 60.1854 47.2909H60.1855C60.4532 47.2909 60.6704 47.0743 60.6704 46.807L60.6708 44.2822C60.671 43.2855 59.8582 42.4748 58.8593 42.4748ZM27.7643 50.489C25.3967 50.489 23.4707 48.5682 23.4707 46.2073C23.4707 43.8464 25.3967 41.9256 27.7643 41.9256C30.1317 41.9256 32.0578 43.8464 32.0578 46.2073C32.0578 48.5682 30.1317 50.489 27.7643 50.489ZM32.9318 45.2141C32.8085 44.5748 32.5676 43.977 32.2342 43.4425H42.0681C41.737 44.0603 41.29 44.6603 40.7823 45.2141H32.9318ZM34.7125 52.7032C34.1182 51.4547 34.7862 50.0053 36.0216 49.4755C36.384 51.0333 37.0716 52.5011 38.0359 53.7792C38.0359 53.7791 35.8121 55.0138 34.7125 52.7032ZM38.9352 53.3612C37.9437 52.0998 37.2537 50.625 36.9212 49.0574C36.9212 49.0574 38.4971 48.2955 38.8555 48.0717C39.2188 49.6874 39.928 51.2017 40.9362 52.5176C40.5344 52.6471 38.9352 53.3612 38.9352 53.3612ZM47.9993 52.4785C46.2689 51.7354 43.9329 51.7836 41.952 52.2389C40.8142 50.864 40.0487 49.2283 39.723 47.4758C41.2111 46.359 42.6344 44.7908 43.277 43.1333C43.6484 42.1774 43.8905 41.1589 44.1858 40.1773C44.6209 42.2541 45.589 44.8589 46.6615 47.1512C47.523 48.9925 48.9743 51.6693 50.4371 53.5254L47.9993 52.4785ZM48.2744 46.401C48.1613 46.1588 47.8731 46.0539 47.6301 46.1668L47.3488 46.2975L47.0857 45.7352L47.9387 45.3387C48.4932 45.0811 49.154 45.3209 49.4124 45.8729C49.6679 46.4192 49.422 47.0863 48.8763 47.3401L48.0223 47.737L47.7591 47.1744L48.0396 47.044C48.2824 46.9311 48.3874 46.6433 48.2744 46.401C48.3874 46.6433 48.1613 46.1588 48.2744 46.401ZM53.2639 54.6791C53.155 54.7307 52.472 54.5641 51.1205 52.8298C50.2528 51.7162 49.3363 50.2528 48.4638 48.5992L49.2856 48.2174C50.3104 47.7411 50.7709 46.4889 50.291 45.4636C49.8066 44.4283 48.5675 43.9787 47.5294 44.4615L46.7064 44.844C45.1884 41.1489 44.6776 38.3532 45.0092 37.4439C45.0439 37.3488 45.0826 37.2579 45.1963 37.2579C45.4931 37.2579 46.3436 37.6475 47.6138 39.0037C49.0487 40.5358 50.4253 42.6326 51.4897 44.9077C53.3698 48.9258 53.9726 52.951 53.4529 54.376C53.378 54.5807 53.2989 54.6629 53.2639 54.6791C53.2989 54.6629 53.1549 54.7306 53.2639 54.6791Z" fill="#1ACDB8"/>
<path d="M51.3156 42.4748L51.1421 42.5744L51.1998 42.6748H51.3156V42.4748ZM48.322 38.3429L48.176 38.4796L48.176 38.4796L48.322 38.3429ZM44.7084 36.3942L44.6241 36.2128L44.6241 36.2128L44.7084 36.3942ZM44.0546 37.2479L43.8631 37.1901L43.8631 37.1903L44.0546 37.2479ZM42.4823 42.4748V42.6748H42.631L42.6738 42.5324L42.4823 42.4748ZM31.4606 42.4748L31.3201 42.6172L31.3786 42.6748H31.4606V42.4748ZM29.8951 51.0056L30.0951 51.0052L30.0946 50.6983L29.814 50.8227L29.8951 51.0056ZM29.9128 61.2636L29.7128 61.2639V61.2639L29.9128 61.2636ZM30.3985 61.7466V61.9466H30.3989L30.3985 61.7466ZM30.8825 61.2619L30.6825 61.2623V61.2623L30.8825 61.2619ZM30.8645 50.4458L30.7466 50.2842L30.6643 50.3443L30.6645 50.4461L30.8645 50.4458ZM33.0267 46.182V45.982H32.8244L32.8267 46.1842L33.0267 46.182ZM39.7829 46.182L39.9135 46.3334L40.3209 45.982H39.7829V46.182ZM37.3934 47.7706L37.4777 47.9519L37.4777 47.9519L37.3934 47.7706ZM35.4555 48.6711L35.5398 48.8525L35.5398 48.8525L35.4555 48.6711ZM33.8337 53.1127L34.0148 53.0279L34.0148 53.0279L33.8337 53.1127ZM38.2888 54.729L38.2045 54.5477L38.2044 54.5477L38.2888 54.729ZM40.2266 53.8286L40.3109 54.0099L40.2266 53.8286ZM47.6158 53.3676L47.5369 53.5513L47.5369 53.5513L47.6158 53.3676ZM52.5897 55.5035L52.6718 55.321L52.6686 55.3197L52.5897 55.5035ZM54.3638 54.707L54.1759 54.6384L54.1759 54.6384L54.3638 54.707ZM53.089 46.182V45.982H52.7964L52.9026 46.2545L53.089 46.182ZM57.0517 46.182H57.2517V45.982H57.0517V46.182ZM52.69 45.2142L52.5065 45.2938L52.5588 45.4142H52.69V45.2142ZM51.845 43.4426V43.2426H51.5152L51.6677 43.5351L51.845 43.4426ZM59.701 44.2822L59.901 44.2822V44.2822H59.701ZM59.7006 46.8069L59.5006 46.8069V46.8069H59.7006ZM60.6704 46.807L60.4704 46.807V46.807H60.6704ZM60.6708 44.2822L60.4708 44.2822V44.2822L60.6708 44.2822ZM32.9318 45.2141L32.7354 45.252L32.7666 45.4141H32.9318V45.2141ZM32.2342 43.4425V43.2425H31.8738L32.0645 43.5483L32.2342 43.4425ZM42.0681 43.4425L42.2444 43.537L42.4022 43.2425H42.0681V43.4425ZM40.7823 45.2141V45.4141H40.8702L40.9297 45.3492L40.7823 45.2141ZM34.7125 52.7032L34.5319 52.7892L34.5319 52.7892L34.7125 52.7032ZM36.0216 49.4755L36.2164 49.4302L36.1623 49.1976L35.9428 49.2917L36.0216 49.4755ZM38.0359 53.7792L37.8762 53.8997L38.2359 54.3764V53.7792H38.0359ZM38.9352 53.3612L38.778 53.4848L38.8744 53.6074L39.0168 53.5438L38.9352 53.3612ZM36.9212 49.0574L36.8342 48.8773L36.6931 48.9455L36.7256 49.0988L36.9212 49.0574ZM38.8555 48.0717L39.0507 48.0278L38.9888 47.7527L38.7496 47.9021L38.8555 48.0717ZM40.9362 52.5176L40.9976 52.7079L41.2674 52.621L41.095 52.3959L40.9362 52.5176ZM47.9993 52.4785L47.9204 52.6623L47.9204 52.6623L47.9993 52.4785ZM41.952 52.2389L41.7979 52.3664L41.8766 52.4614L41.9968 52.4338L41.952 52.2389ZM39.723 47.4758L39.6029 47.3159L39.5037 47.3904L39.5264 47.5124L39.723 47.4758ZM43.277 43.1333L43.0906 43.0608L43.0905 43.061L43.277 43.1333ZM44.1858 40.1773L44.3816 40.1362L43.9943 40.1196L44.1858 40.1773ZM46.6615 47.1512L46.4803 47.2359V47.2359L46.6615 47.1512ZM50.4371 53.5254L50.3582 53.7092L50.5942 53.4016L50.4371 53.5254ZM48.2744 46.401L48.4556 46.3165L48.4556 46.3164L48.2744 46.401ZM47.6301 46.1668L47.5459 45.9854L47.5458 45.9854L47.6301 46.1668ZM47.3488 46.2975L47.1677 46.3823L47.2522 46.563L47.4332 46.4789L47.3488 46.2975ZM47.0857 45.7352L47.0014 45.5538L46.8196 45.6383L46.9046 45.8199L47.0857 45.7352ZM47.9387 45.3387L47.8544 45.1573L47.8544 45.1573L47.9387 45.3387ZM49.4124 45.8729L49.5935 45.7882L49.5935 45.7882L49.4124 45.8729ZM48.8763 47.3401L48.9606 47.5215L48.9607 47.5214L48.8763 47.3401ZM48.0223 47.737L47.8411 47.8217L47.9257 48.0024L48.1066 47.9183L48.0223 47.737ZM47.7591 47.1744L47.6748 46.993L47.4929 47.0775L47.5779 47.2592L47.7591 47.1744ZM48.0396 47.044L48.1239 47.2254L48.1239 47.2254L48.0396 47.044ZM53.2639 54.6791L53.1799 54.4976L53.1785 54.4983L53.2639 54.6791ZM51.1205 52.8298L50.9627 52.9527L50.9627 52.9527L51.1205 52.8298ZM48.4638 48.5992L48.3795 48.4179L48.1887 48.5065L48.2869 48.6926L48.4638 48.5992ZM49.2856 48.2174L49.3699 48.3987L49.3699 48.3987L49.2856 48.2174ZM50.291 45.4636L50.1098 45.5483L50.1098 45.5484L50.291 45.4636ZM47.5294 44.4615L47.6137 44.6429L47.6138 44.6429L47.5294 44.4615ZM46.7064 44.844L46.5214 44.92L46.6009 45.1136L46.7907 45.0254L46.7064 44.844ZM45.0092 37.4439L45.1971 37.5125L45.1972 37.5124L45.0092 37.4439ZM47.6138 39.0037L47.4678 39.1405L47.4678 39.1405L47.6138 39.0037ZM51.4897 44.9077L51.3086 44.9924L51.4897 44.9077ZM53.4529 54.376L53.6407 54.4448L53.6408 54.4446L53.4529 54.376ZM58.8593 42.2748H51.3156V42.6748H58.8593V42.2748ZM51.489 42.3753C50.5799 40.7915 49.5424 39.3533 48.468 38.2062L48.176 38.4796C49.2257 39.6003 50.2455 41.0124 51.1421 42.5744L51.489 42.3753ZM48.468 38.2062C48.0222 37.7301 47.3773 37.1036 46.7003 36.6585C46.3618 36.436 46.0067 36.253 45.6577 36.1601C45.3076 36.0669 44.9504 36.0612 44.6241 36.2128L44.7926 36.5756C45.0086 36.4753 45.2638 36.4692 45.5548 36.5467C45.8469 36.6244 46.1617 36.7831 46.4805 36.9927C47.1182 37.4119 47.7377 38.0116 48.176 38.4796L48.468 38.2062ZM44.6241 36.2128C44.1993 36.4103 43.9786 36.8075 43.8631 37.1901L44.2461 37.3057C44.346 36.9744 44.5157 36.7043 44.7927 36.5755L44.6241 36.2128ZM43.8631 37.1903L42.2908 42.4172L42.6738 42.5324L44.2461 37.3055L43.8631 37.1903ZM42.4823 42.2748H31.4606V42.6748H42.4823V42.2748ZM31.601 42.3324C30.6144 41.3597 29.2586 40.7578 27.7643 40.7578V41.1578C29.149 41.1578 30.4052 41.7152 31.3201 42.6172L31.601 42.3324ZM27.7643 40.7578C24.7521 40.7578 22.301 43.2018 22.301 46.2073H22.701C22.701 43.4237 24.9721 41.1578 27.7643 41.1578V40.7578ZM22.301 46.2073C22.301 49.2128 24.7521 51.6568 27.7643 51.6568V51.2568C24.9721 51.2568 22.701 48.9909 22.701 46.2073H22.301ZM27.7643 51.6568C28.5514 51.6568 29.2995 51.4885 29.9762 51.1884L29.814 50.8227C29.1868 51.1009 28.4938 51.2568 27.7643 51.2568V51.6568ZM29.6951 51.0059L29.7128 61.2639L30.1128 61.2632L30.0951 51.0052L29.6951 51.0059ZM29.7128 61.2639C29.7135 61.6416 30.0203 61.9466 30.3976 61.9466V61.5466C30.2402 61.5466 30.1131 61.4195 30.1128 61.2632L29.7128 61.2639ZM30.3976 61.9466H30.3985V61.5466H30.3976V61.9466ZM30.3989 61.9466C30.7767 61.946 31.0832 61.6397 31.0825 61.2616L30.6825 61.2623C30.6828 61.4187 30.556 61.5463 30.3982 61.5466L30.3989 61.9466ZM31.0825 61.2616L31.0645 50.4455L30.6645 50.4461L30.6825 61.2623L31.0825 61.2616ZM30.9824 50.6074C32.3413 49.6158 33.2274 48.0135 33.2274 46.2074H32.8274C32.8274 47.8795 32.0075 49.3642 30.7466 50.2842L30.9824 50.6074ZM33.2274 46.2074C33.2274 46.199 33.2271 46.1915 33.2269 46.1873C33.2267 46.1821 33.2267 46.1808 33.2267 46.1797L32.8267 46.1842C32.8268 46.1916 32.8271 46.1988 32.8272 46.2021C32.8273 46.2041 32.8273 46.2053 32.8274 46.2063C32.8274 46.2072 32.8274 46.2075 32.8274 46.2074H33.2274ZM33.0267 46.382H39.7829V45.982H33.0267V46.382ZM39.6523 46.0305C38.8715 46.704 38.04 47.2495 37.3091 47.5892L37.4777 47.9519C38.2476 47.5941 39.1099 47.0267 39.9135 46.3334L39.6523 46.0305ZM37.3091 47.5892L35.3712 48.4898L35.5398 48.8525L37.4777 47.9519L37.3091 47.5892ZM35.3712 48.4898C33.6174 49.3047 32.8314 51.4426 33.6525 53.1974L34.0148 53.0279C33.288 51.4746 33.9856 49.5747 35.5398 48.8525L35.3712 48.4898ZM33.6525 53.1974C34.4806 54.9677 36.5984 55.7354 38.3731 54.9104L38.2044 54.5477C36.6291 55.28 34.7491 54.5977 34.0148 53.0279L33.6525 53.1974ZM38.373 54.9104L40.3109 54.0099L40.1423 53.6472L38.2045 54.5477L38.373 54.9104ZM40.3109 54.0099C41.2854 53.5571 42.589 53.2233 43.9065 53.114C45.2263 53.0046 46.5377 53.1222 47.5369 53.5513L47.6947 53.1838C46.6128 52.7191 45.2286 52.603 43.8735 52.7154C42.5162 52.828 41.1657 53.1716 40.1423 53.6472L40.3109 54.0099ZM47.5369 53.5513L52.5108 55.6872L52.6686 55.3197L47.6947 53.1838L47.5369 53.5513ZM52.5076 55.6859C52.9495 55.8847 53.3834 55.8872 53.752 55.7131C54.1178 55.5404 54.3947 55.2057 54.5517 54.7755L54.1759 54.6384C54.0474 54.9908 53.8332 55.2324 53.5812 55.3514C53.3321 55.469 53.0216 55.4785 52.6717 55.3211L52.5076 55.6859ZM54.5517 54.7755C54.8263 54.0225 54.8711 52.7989 54.6712 51.3086C54.4702 49.8103 54.0183 48.0168 53.2753 46.1094L52.9026 46.2545C53.6353 48.1354 54.0784 49.898 54.2747 51.3618C54.4722 52.8337 54.4166 53.9784 54.1759 54.6384L54.5517 54.7755ZM53.089 46.382H57.0517V45.982H53.089V46.382ZM56.8517 46.182V61.2629H57.2517V46.182H56.8517ZM56.8517 61.2629C56.8517 61.641 57.1587 61.9467 57.5366 61.9467V61.5467C57.3788 61.5467 57.2517 61.4193 57.2517 61.2629H56.8517ZM57.5366 61.9467C57.9144 61.9467 58.2215 61.641 58.2215 61.2629H57.8215C57.8215 61.4193 57.6944 61.5467 57.5366 61.5467V61.9467ZM58.2215 61.2629V45.698H57.8215V61.2629H58.2215ZM58.2215 45.698C58.2215 45.3199 57.9144 45.0142 57.5366 45.0142V45.4142C57.6944 45.4142 57.8215 45.5416 57.8215 45.698H58.2215ZM57.5366 45.0142H52.69V45.4142H57.5366V45.0142ZM52.8735 45.1345C52.6109 44.5297 52.3272 43.9349 52.0223 43.3501L51.6677 43.5351C51.9682 44.1114 52.2478 44.6977 52.5065 45.2938L52.8735 45.1345ZM51.845 43.6426H58.8591V43.2426H51.845V43.6426ZM58.8591 43.6426C59.2133 43.6426 59.501 43.9302 59.501 44.2822H59.901C59.901 43.7084 59.4333 43.2426 58.8591 43.2426V43.6426ZM59.501 44.2822L59.5006 46.8069L59.9006 46.8069L59.901 44.2822L59.501 44.2822ZM59.5006 46.8069C59.5006 47.185 59.8075 47.4909 60.1854 47.4909V47.0909C60.0278 47.0909 59.9006 46.9634 59.9006 46.8069H59.5006ZM60.1854 47.4909H60.1855V47.0909H60.1854V47.4909ZM60.1855 47.4909C60.5633 47.4909 60.8704 47.1852 60.8704 46.807H60.4704C60.4704 46.9634 60.3432 47.0909 60.1855 47.0909V47.4909ZM60.8704 46.807L60.8708 44.2822L60.4708 44.2822L60.4704 46.807L60.8704 46.807ZM60.8708 44.2823C60.871 43.1746 59.9682 42.2748 58.8593 42.2748V42.6748C59.7482 42.6748 60.4709 43.3964 60.4708 44.2822L60.8708 44.2823ZM27.7643 50.289C25.5067 50.289 23.6707 48.4573 23.6707 46.2073H23.2707C23.2707 48.6792 25.2868 50.689 27.7643 50.689V50.289ZM23.6707 46.2073C23.6707 43.9574 25.5067 42.1256 27.7643 42.1256V41.7256C25.2868 41.7256 23.2707 43.7354 23.2707 46.2073H23.6707ZM27.7643 42.1256C30.0218 42.1256 31.8578 43.9573 31.8578 46.2073H32.2578C32.2578 43.7354 30.2417 41.7256 27.7643 41.7256V42.1256ZM31.8578 46.2073C31.8578 48.4573 30.0218 50.289 27.7643 50.289V50.689C30.2417 50.689 32.2578 48.6792 32.2578 46.2073H31.8578ZM33.1281 45.1762C33.0001 44.5121 32.7499 43.8913 32.4039 43.3367L32.0645 43.5483C32.3854 44.0627 32.6169 44.6376 32.7354 45.252L33.1281 45.1762ZM32.2342 43.6425H42.0681V43.2425H32.2342V43.6425ZM41.8918 43.348C41.5703 43.9479 41.134 44.5345 40.6348 45.0789L40.9297 45.3492C41.446 44.786 41.9037 44.1726 42.2444 43.537L41.8918 43.348ZM40.7823 45.0141H32.9318V45.4141H40.7823V45.0141ZM34.8931 52.6173C34.354 51.4846 34.9552 50.1504 36.1004 49.6593L35.9428 49.2917C34.6171 49.8601 33.8825 51.4248 34.5319 52.7892L34.8931 52.6173ZM35.8268 49.5208C36.1956 51.106 36.8951 52.5993 37.8762 53.8997L38.1955 53.6588C37.248 52.4028 36.5725 50.9607 36.2164 49.4302L35.8268 49.5208ZM38.2359 53.7792C38.1388 53.6077 37.9411 53.6031 37.9404 53.6035C37.9402 53.6036 37.9399 53.6038 37.9398 53.6038C37.9397 53.6038 37.9396 53.6039 37.9396 53.6039C37.9395 53.6039 37.9395 53.604 37.9395 53.604C37.9393 53.6041 37.9391 53.6042 37.9388 53.6044C37.9381 53.6047 37.937 53.6053 37.9353 53.6062C37.932 53.608 37.9267 53.6108 37.9195 53.6145C37.9051 53.6219 37.8829 53.6329 37.8539 53.6463C37.7959 53.6733 37.7106 53.71 37.6047 53.7474C37.3917 53.8225 37.1006 53.8986 36.7808 53.9077C36.4622 53.9168 36.1197 53.8595 35.7955 53.6728C35.4725 53.4867 35.1531 53.1638 34.8931 52.6173L34.5319 52.7892C34.8216 53.398 35.1927 53.7871 35.5958 54.0194C35.9979 54.251 36.4175 54.3183 36.7923 54.3076C37.1659 54.2969 37.4994 54.2087 37.7378 54.1246C37.8575 54.0823 37.9546 54.0406 38.0224 54.0091C38.0564 53.9933 38.0831 53.9801 38.1018 53.9705C38.1111 53.9657 38.1184 53.9619 38.1236 53.9591C38.1262 53.9577 38.1283 53.9566 38.1298 53.9558C38.1305 53.9554 38.1311 53.9551 38.1315 53.9549C38.1316 53.9548 38.1317 53.9548 38.1317 53.9547C38.1318 53.9547 38.1318 53.9547 38.1318 53.9547C38.1318 53.9547 38.1315 53.9549 38.1313 53.955C38.1306 53.9553 37.933 53.9507 37.8359 53.7792H38.2359ZM39.0925 53.2376C38.1199 52.0002 37.443 50.5536 37.1169 49.0159L36.7256 49.0988C37.0644 50.6965 37.7676 52.1993 38.778 53.4848L39.0925 53.2376ZM36.9212 49.0574C37.0083 49.2374 37.0083 49.2374 37.0083 49.2374C37.0083 49.2374 37.0083 49.2374 37.0084 49.2374C37.0084 49.2373 37.0085 49.2373 37.0086 49.2373C37.0088 49.2372 37.0091 49.237 37.0095 49.2368C37.0102 49.2365 37.0114 49.2359 37.0129 49.2352C37.0159 49.2337 37.0204 49.2316 37.0262 49.2287C37.0379 49.2231 37.0551 49.2147 37.077 49.2041C37.1209 49.1828 37.184 49.1521 37.2609 49.1145C37.4145 49.0395 37.6231 48.937 37.8431 48.8275C38.2778 48.6111 38.772 48.3596 38.9614 48.2414L38.7496 47.9021C38.5806 48.0076 38.1077 48.2489 37.6648 48.4694C37.446 48.5783 37.2383 48.6803 37.0853 48.7551C37.0087 48.7925 36.9459 48.8231 36.9023 48.8443C36.8804 48.8549 36.8634 48.8631 36.8518 48.8688C36.846 48.8716 36.8416 48.8737 36.8386 48.8751C36.8372 48.8759 36.836 48.8764 36.8353 48.8768C36.8349 48.8769 36.8346 48.8771 36.8344 48.8772C36.8344 48.8772 36.8343 48.8772 36.8342 48.8773C36.8342 48.8773 36.8342 48.8773 36.8342 48.8773C36.8342 48.8773 36.8342 48.8773 36.9212 49.0574ZM38.6604 48.1156C39.03 49.7596 39.7516 51.3004 40.7775 52.6392L41.095 52.3959C40.1043 51.103 39.4076 49.6152 39.0507 48.0278L38.6604 48.1156ZM40.8749 52.3272C40.6625 52.3957 40.1514 52.6115 39.7056 52.8044C39.48 52.902 39.2671 52.9956 39.1106 53.0647C39.0323 53.0992 38.9681 53.1277 38.9235 53.1475C38.9012 53.1574 38.8837 53.1652 38.8719 53.1705C38.8659 53.1731 38.8614 53.1751 38.8583 53.1765C38.8568 53.1772 38.8556 53.1777 38.8549 53.1781C38.8545 53.1782 38.8542 53.1784 38.854 53.1785C38.8539 53.1785 38.8538 53.1785 38.8537 53.1786C38.8537 53.1786 38.8537 53.1786 38.8537 53.1786C38.8537 53.1786 38.8537 53.1786 38.9352 53.3612C39.0168 53.5438 39.0168 53.5438 39.0168 53.5438C39.0168 53.5438 39.0168 53.5438 39.0168 53.5438C39.0169 53.5438 39.0169 53.5438 39.017 53.5437C39.0172 53.5436 39.0175 53.5435 39.0179 53.5433C39.0187 53.543 39.0198 53.5425 39.0213 53.5418C39.0243 53.5405 39.0288 53.5385 39.0347 53.5359C39.0464 53.5306 39.0637 53.5229 39.0859 53.5131C39.1303 53.4933 39.1942 53.465 39.2722 53.4306C39.4281 53.3617 39.64 53.2686 39.8645 53.1715C40.3187 52.975 40.8082 52.769 40.9976 52.7079L40.8749 52.3272ZM48.0783 52.2947C46.2934 51.5282 43.9093 51.5838 41.9072 52.044L41.9968 52.4338C43.9565 51.9833 46.2445 51.9425 47.9204 52.6623L48.0783 52.2947ZM42.1061 52.1114C40.99 50.7626 40.2391 49.1583 39.9196 47.4393L39.5264 47.5124C39.8583 49.2984 40.6385 50.9653 41.7979 52.3664L42.1061 52.1114ZM39.843 47.6358C41.3486 46.5058 42.8027 44.9101 43.4635 43.2056L43.0905 43.061C42.4661 44.6716 41.0736 46.2121 39.6029 47.3159L39.843 47.6358ZM43.4634 43.2057C43.8385 42.2404 44.0868 41.2009 44.3774 40.2349L43.9943 40.1196C43.6943 41.117 43.4584 42.1144 43.0906 43.0608L43.4634 43.2057ZM43.9901 40.2183C44.4295 42.3157 45.4042 44.9358 46.4803 47.2359L46.8426 47.0664C45.7738 44.7819 44.8124 42.1926 44.3816 40.1362L43.9901 40.2183ZM46.4803 47.2359C47.3447 49.0832 48.8036 51.7758 50.28 53.6492L50.5942 53.4016C49.1451 51.5629 47.7013 48.9017 46.8426 47.0664L46.4803 47.2359ZM50.516 53.3416L48.0783 52.2947L47.9204 52.6623L50.3582 53.7092L50.516 53.3416ZM48.4556 46.3164C48.2957 45.974 47.8886 45.8261 47.5459 45.9854L47.7144 46.3482C47.8576 46.2817 48.0268 46.3436 48.0932 46.4856L48.4556 46.3164ZM47.5458 45.9854L47.2645 46.1162L47.4332 46.4789L47.7144 46.3482L47.5458 45.9854ZM47.53 46.2128L47.2669 45.6504L46.9046 45.8199L47.1677 46.3823L47.53 46.2128ZM47.17 45.9165L48.023 45.5201L47.8544 45.1573L47.0014 45.5538L47.17 45.9165ZM48.0229 45.5201C48.4779 45.3088 49.0198 45.506 49.2312 45.9577L49.5935 45.7882C49.2883 45.1359 48.5085 44.8535 47.8544 45.1573L48.0229 45.5201ZM49.2312 45.9577C49.4395 46.4029 49.2381 46.9512 48.792 47.1588L48.9607 47.5214C49.6058 47.2213 49.8963 46.4354 49.5935 45.7882L49.2312 45.9577ZM48.792 47.1587L47.938 47.5556L48.1066 47.9183L48.9606 47.5215L48.792 47.1587ZM48.2034 47.6522L47.9402 47.0896L47.5779 47.2592L47.8411 47.8217L48.2034 47.6522ZM47.8433 47.3558L48.1239 47.2254L47.9553 46.8627L47.6748 46.993L47.8433 47.3558ZM48.1239 47.2254C48.4668 47.066 48.6154 46.6592 48.4556 46.3165L48.0931 46.4856C48.1593 46.6275 48.0979 46.7963 47.9552 46.8627L48.1239 47.2254ZM48.4556 46.3164C48.4415 46.2861 48.4326 46.2672 48.4277 46.2568C48.4253 46.2516 48.4238 46.2484 48.4232 46.247C48.423 46.2467 48.4228 46.2462 48.4226 46.2457C48.4225 46.2456 48.4224 46.2453 48.4222 46.2449C48.4221 46.2446 48.4217 46.2439 48.4215 46.2435C48.4209 46.2423 48.4168 46.2344 48.413 46.2278C48.1535 46.1516 48.0568 46.4074 48.0584 46.4111C48.0588 46.412 48.0594 46.4133 48.0596 46.4137C48.0598 46.4143 48.06 46.4147 48.0601 46.4148C48.0604 46.4155 48.0609 46.4166 48.0612 46.4173C48.0648 46.425 48.079 46.4554 48.0931 46.4856C48.1072 46.5159 48.1214 46.5463 48.125 46.5539C48.1253 46.5547 48.1258 46.5558 48.1262 46.5564C48.1262 46.5565 48.1264 46.557 48.1267 46.5576C48.1269 46.558 48.1275 46.5593 48.128 46.5602C48.1299 46.564 48.3888 46.6535 48.4957 46.4047C48.4933 46.3981 48.4901 46.3906 48.4896 46.3895C48.4894 46.389 48.4891 46.3883 48.489 46.3881C48.4888 46.3877 48.4887 46.3873 48.4886 46.3872C48.4884 46.3868 48.4882 46.3863 48.488 46.386C48.4874 46.3846 48.4859 46.3814 48.4835 46.3762C48.4786 46.3657 48.4698 46.3468 48.4556 46.3165L48.0931 46.4856C48.1072 46.5158 48.1161 46.5348 48.1209 46.5451C48.1233 46.5504 48.1247 46.5533 48.1253 46.5545C48.1254 46.5549 48.1254 46.5548 48.1253 46.5546C48.1253 46.5545 48.1251 46.5542 48.125 46.5538C48.1249 46.5536 48.1245 46.5529 48.1243 46.5525C48.1239 46.5514 48.1207 46.5438 48.1183 46.5373C48.2251 46.2885 48.484 46.378 48.486 46.3818C48.4864 46.3827 48.4871 46.384 48.4873 46.3844C48.4875 46.3849 48.4877 46.3854 48.4877 46.3854C48.4879 46.3857 48.4879 46.3856 48.4873 46.3844C48.4838 46.377 48.4697 46.3468 48.4556 46.3165C48.4414 46.2862 48.4274 46.256 48.4239 46.2485C48.4233 46.2474 48.4233 46.2473 48.4234 46.2476C48.4235 46.2476 48.4237 46.248 48.4239 46.2486C48.4241 46.249 48.4246 46.2503 48.425 46.2511C48.4266 46.2548 48.33 46.5106 48.0705 46.4344C48.0666 46.4278 48.0625 46.4199 48.062 46.4188C48.0618 46.4183 48.0614 46.4176 48.0613 46.4174C48.0611 46.417 48.061 46.4167 48.0609 46.4167C48.0608 46.4164 48.0608 46.4164 48.061 46.4167C48.0615 46.4179 48.0629 46.4209 48.0654 46.4261C48.0702 46.4365 48.079 46.4554 48.0932 46.4856L48.4556 46.3164ZM53.1783 54.4984C53.2123 54.4822 53.2322 54.4881 53.2148 54.4865C53.2034 54.4854 53.1788 54.481 53.1397 54.4672C53.0617 54.4397 52.9405 54.3799 52.7743 54.2613C52.4421 54.0244 51.947 53.565 51.2783 52.7068L50.9627 52.9527C51.6455 53.8289 52.1677 54.32 52.542 54.587C52.7291 54.7204 52.8836 54.801 53.0065 54.8444C53.0679 54.866 53.1251 54.8798 53.1771 54.8847C53.2232 54.8891 53.2882 54.8889 53.3495 54.8599L53.1783 54.4984ZM51.2783 52.7068C50.4198 51.6051 49.5095 50.1525 48.6407 48.5059L48.2869 48.6926C49.1632 50.3532 50.0857 51.8272 50.9627 52.9527L51.2783 52.7068ZM48.5481 48.7806L49.3699 48.3987L49.2014 48.036L48.3795 48.4179L48.5481 48.7806ZM49.3699 48.3987C50.4944 47.8761 50.9992 46.5049 50.4721 45.3788L50.1098 45.5484C50.5425 46.4728 50.1263 47.6061 49.2014 48.036L49.3699 48.3987ZM50.4721 45.3788C49.9409 44.2434 48.5828 43.7509 47.4451 44.2802L47.6138 44.6429C48.5521 44.2064 49.6723 44.6133 50.1098 45.5483L50.4721 45.3788ZM47.4451 44.2802L46.6221 44.6626L46.7907 45.0254L47.6137 44.6429L47.4451 44.2802ZM46.8914 44.768C46.1358 42.9288 45.6326 41.3174 45.3596 40.0569C45.2231 39.4265 45.1449 38.8872 45.1207 38.453C45.0962 38.0136 45.1283 37.7011 45.1971 37.5125L44.8213 37.3754C44.7243 37.6414 44.6959 38.0194 44.7213 38.4753C44.747 38.9365 44.8292 39.4976 44.9687 40.1416C45.2477 41.43 45.759 43.0641 46.5214 44.92L46.8914 44.768ZM45.1972 37.5124C45.2056 37.4893 45.2119 37.473 45.2181 37.4597C45.2211 37.4534 45.2235 37.449 45.2254 37.4459C45.2272 37.4428 45.2282 37.4416 45.2281 37.4416C45.2277 37.4422 45.2227 37.4478 45.2129 37.4527C45.2027 37.4578 45.1955 37.4579 45.1963 37.4579V37.0579C45.0743 37.0579 44.981 37.1117 44.9181 37.1889C44.8655 37.2534 44.8374 37.3312 44.8213 37.3755L45.1972 37.5124ZM45.1963 37.4579C45.2333 37.4579 45.3145 37.4718 45.445 37.5251C45.572 37.577 45.7345 37.6615 45.9306 37.7896C46.3228 38.0459 46.8409 38.471 47.4678 39.1405L47.7598 38.867C47.1165 38.1802 46.5743 37.7324 46.1494 37.4548C45.9371 37.316 45.7519 37.2184 45.5963 37.1548C45.4442 37.0927 45.3077 37.0579 45.1963 37.0579V37.4579ZM47.4678 39.1405C48.8859 40.6545 50.2513 42.7328 51.3086 44.9924L51.6709 44.8229C50.5992 42.5325 49.2116 40.4171 47.7598 38.867L47.4678 39.1405ZM51.3086 44.9924C52.2416 46.9866 52.8571 48.9815 53.1747 50.6516C53.3335 51.4867 53.4173 52.2376 53.4298 52.8645C53.4424 53.4953 53.3825 53.9853 53.265 54.3075L53.6408 54.4446C53.7831 54.0542 53.8427 53.5067 53.8297 52.8565C53.8166 52.2023 53.7296 51.4285 53.5677 50.5769C53.2438 48.8736 52.6179 46.8469 51.6709 44.8229L51.3086 44.9924ZM53.2651 54.3073C53.2323 54.397 53.2011 54.4527 53.1793 54.484C53.1684 54.4997 53.1609 54.5077 53.158 54.5105C53.1533 54.5151 53.1604 54.5066 53.1799 54.4976L53.3479 54.8606C53.4138 54.8301 53.4673 54.7705 53.5076 54.7125C53.5528 54.6475 53.5987 54.5598 53.6407 54.4448L53.2651 54.3073ZM53.1785 54.4983C53.1648 54.5047 53.1551 54.5093 53.1485 54.5125C53.1422 54.5154 53.1379 54.5175 53.1359 54.5184C53.1356 54.5186 53.1349 54.5189 53.1341 54.5193C53.1338 54.5195 53.1329 54.5199 53.1318 54.5204C53.1313 54.5207 53.1303 54.5212 53.129 54.5219C53.1284 54.5222 53.1269 54.523 53.126 54.5235C53.1248 54.5242 53.1217 54.526 53.1198 54.5271C53.1164 54.5291 53.1055 54.5364 53.0982 54.542C53.0687 54.5707 53.0451 54.7915 53.1987 54.8974C53.2329 54.8985 53.2749 54.8918 53.2829 54.8894C53.2864 54.8882 53.2919 54.8863 53.2939 54.8855C53.2972 54.8843 53.2997 54.8832 53.3004 54.8829C53.3014 54.8825 53.3023 54.8821 53.3027 54.8819C53.3043 54.8812 53.3056 54.8806 53.3058 54.8806C53.3071 54.88 53.3088 54.8792 53.3099 54.8787C53.3126 54.8774 53.3167 54.8755 53.3212 54.8733C53.3303 54.8691 53.3419 54.8636 53.3491 54.8602C53.3509 54.8593 53.3526 54.8585 53.354 54.8579C53.3546 54.8575 53.3555 54.8571 53.3563 54.8567C53.3567 54.8565 53.3574 54.8562 53.3581 54.8559C53.3585 54.8557 53.3591 54.8554 53.3598 54.855C53.3603 54.8547 53.3617 54.854 53.3634 54.8531C53.3642 54.8527 53.3658 54.8519 53.3677 54.8508C53.3686 54.8503 53.3706 54.8491 53.3718 54.8484C53.3734 54.8474 53.3773 54.845 53.3796 54.8435C53.3833 54.8411 53.3934 54.8336 53.3997 54.8284C53.414 54.8148 53.4619 54.7312 53.4683 54.6545C53.4184 54.543 53.2804 54.4768 53.2475 54.4778C53.2363 54.4793 53.2198 54.4828 53.2144 54.4843C53.2113 54.4852 53.2061 54.4869 53.204 54.4876C53.2025 54.4881 53.2 54.489 53.1989 54.4894C53.1967 54.4903 53.1949 54.491 53.194 54.4914C53.1921 54.4921 53.1906 54.4928 53.19 54.493C53.1887 54.4936 53.1876 54.4941 53.1872 54.4943C53.1866 54.4945 53.186 54.4948 53.1856 54.495C53.1841 54.4957 53.1821 54.4966 53.1799 54.4976L53.3479 54.8606C53.3501 54.8596 53.3511 54.8592 53.3513 54.859C53.3513 54.859 53.3512 54.8591 53.3509 54.8592C53.3508 54.8593 53.3499 54.8597 53.3487 54.8602C53.3482 54.8604 53.3468 54.861 53.345 54.8618C53.3441 54.8621 53.3423 54.8628 53.3401 54.8637C53.339 54.8641 53.3365 54.865 53.335 54.8655C53.333 54.8662 53.3278 54.8679 53.3246 54.8688C53.3193 54.8703 53.3027 54.8738 53.2916 54.8753C53.2587 54.8762 53.1206 54.8101 53.0707 54.6986C53.0772 54.6218 53.125 54.5383 53.1394 54.5247C53.1457 54.5195 53.1558 54.512 53.1594 54.5096C53.1617 54.5081 53.1656 54.5056 53.1672 54.5047C53.1684 54.504 53.1705 54.5028 53.1713 54.5023C53.1732 54.5012 53.1748 54.5004 53.1756 54.5C53.1772 54.4991 53.1785 54.4985 53.179 54.4982C53.1796 54.4979 53.1801 54.4976 53.1804 54.4975C53.1809 54.4972 53.1813 54.4971 53.1814 54.497C53.1816 54.4969 53.1815 54.4969 53.1812 54.4971C53.1804 54.4975 53.1793 54.498 53.1776 54.4988C53.1711 54.5019 53.16 54.5071 53.1511 54.5113C53.1466 54.5134 53.1429 54.5152 53.1406 54.5162C53.1392 54.5169 53.1391 54.5169 53.1396 54.5167C53.1397 54.5167 53.1399 54.5166 53.1403 54.5164C53.1405 54.5163 53.1412 54.516 53.1421 54.5156C53.1425 54.5154 53.1434 54.515 53.1444 54.5146C53.145 54.5143 53.1476 54.5133 53.1509 54.512C53.1528 54.5113 53.1583 54.5093 53.1618 54.5082C53.1699 54.5058 53.2118 54.4991 53.246 54.5002C53.3996 54.6061 53.376 54.8268 53.3465 54.8556C53.3392 54.8611 53.3283 54.8684 53.3249 54.8705C53.323 54.8716 53.3199 54.8734 53.3187 54.874C53.3179 54.8745 53.3164 54.8753 53.3158 54.8756C53.3145 54.8763 53.3135 54.8768 53.313 54.8771C53.312 54.8776 53.3112 54.878 53.3109 54.8781C53.3103 54.8784 53.3098 54.8786 53.3098 54.8786C53.3098 54.8787 53.3104 54.8784 53.3123 54.8775C53.314 54.8767 53.3164 54.8755 53.3196 54.874C53.3261 54.8709 53.3357 54.8664 53.3493 54.86L53.1785 54.4983Z" fill="#1ACDB8" mask="url(#path-11-outside-10_923_303)"/>
<mask id="path-13-outside-11_923_303" maskUnits="userSpaceOnUse" x="51.2756" y="22.2377" width="18" height="15" fill="black">
<rect fill="white" x="51.2756" y="22.2377" width="18" height="15"/>
<path d="M68.3775 29.0155C68.6454 29.0155 68.8624 28.799 68.8624 28.5317V23.7215C68.8624 23.4542 68.6454 23.2377 68.3775 23.2377H52.767C52.4992 23.2377 52.2823 23.4542 52.2821 23.7213L52.2756 36.2773C52.2754 36.5387 52.498 36.7614 52.7605 36.7614H68.3776C68.6455 36.7614 68.8625 36.5448 68.8625 36.2775V32.4985C68.8625 32.2273 68.6202 31.9602 68.3448 31.9602H53.2475L53.2515 24.2054H67.8926V28.5317C67.8927 28.799 68.1098 29.0155 68.3775 29.0155ZM67.8927 32.9279V35.7935H53.2456L53.2471 32.9279H67.8927Z"/>
</mask>
<path d="M68.3775 29.0155C68.6454 29.0155 68.8624 28.799 68.8624 28.5317V23.7215C68.8624 23.4542 68.6454 23.2377 68.3775 23.2377H52.767C52.4992 23.2377 52.2823 23.4542 52.2821 23.7213L52.2756 36.2773C52.2754 36.5387 52.498 36.7614 52.7605 36.7614H68.3776C68.6455 36.7614 68.8625 36.5448 68.8625 36.2775V32.4985C68.8625 32.2273 68.6202 31.9602 68.3448 31.9602H53.2475L53.2515 24.2054H67.8926V28.5317C67.8927 28.799 68.1098 29.0155 68.3775 29.0155ZM67.8927 32.9279V35.7935H53.2456L53.2471 32.9279H67.8927Z" fill="#1ACDB8"/>
<path d="M68.3775 29.0155C68.6454 29.0155 68.8624 28.799 68.8624 28.5317V23.7215C68.8624 23.4542 68.6454 23.2377 68.3775 23.2377H52.767C52.4992 23.2377 52.2823 23.4542 52.2821 23.7213L52.2756 36.2773C52.2754 36.5387 52.498 36.7614 52.7605 36.7614H68.3776C68.6455 36.7614 68.8625 36.5448 68.8625 36.2775V32.4985C68.8625 32.2273 68.6202 31.9602 68.3448 31.9602H53.2475L53.2515 24.2054H67.8926V28.5317C67.8927 28.799 68.1098 29.0155 68.3775 29.0155ZM67.8927 32.9279V35.7935H53.2456L53.2471 32.9279H67.8927Z" stroke="#1ACDB8" stroke-width="0.4" mask="url(#path-13-outside-11_923_303)"/>
<mask id="path-14-outside-12_923_303" maskUnits="userSpaceOnUse" x="52.9725" y="32.8672" width="4" height="3" fill="black">
<rect fill="white" x="52.9725" y="32.8672" width="4" height="3"/>
<path d="M55.4291 34.8349H54.4574C54.1896 34.8349 53.9725 34.6183 53.9725 34.351C53.9725 34.0838 54.1896 33.8672 54.4574 33.8672H55.4291C55.697 33.8672 55.914 34.0838 55.914 34.351C55.914 34.6183 55.697 34.8349 55.4291 34.8349Z"/>
</mask>
<path d="M55.4291 34.8349H54.4574C54.1896 34.8349 53.9725 34.6183 53.9725 34.351C53.9725 34.0838 54.1896 33.8672 54.4574 33.8672H55.4291C55.697 33.8672 55.914 34.0838 55.914 34.351C55.914 34.6183 55.697 34.8349 55.4291 34.8349Z" fill="#1ACDB8"/>
<path d="M55.4291 34.8349H54.4574C54.1896 34.8349 53.9725 34.6183 53.9725 34.351C53.9725 34.0838 54.1896 33.8672 54.4574 33.8672H55.4291C55.697 33.8672 55.914 34.0838 55.914 34.351C55.914 34.6183 55.697 34.8349 55.4291 34.8349Z" stroke="#1ACDB8" stroke-width="0.4" mask="url(#path-14-outside-12_923_303)"/>
<mask id="path-15-outside-13_923_303" maskUnits="userSpaceOnUse" x="64.2448" y="32.3815" width="4" height="4" fill="black">
<rect fill="white" x="64.2448" y="32.3815" width="4" height="4"/>
<path d="M66.7027 33.867H66.7011V33.8653C66.7011 33.598 66.484 33.3815 66.2162 33.3815C65.9483 33.3815 65.7313 33.598 65.7313 33.8653V33.867H65.7296C65.4617 33.867 65.2448 34.0836 65.2448 34.3509C65.2448 34.6181 65.4618 34.8347 65.7296 34.8347H65.7313V34.8364C65.7313 35.1037 65.9483 35.3203 66.2162 35.3203C66.484 35.3203 66.7011 35.1037 66.7011 34.8364V34.8347H66.7027C66.9705 34.8347 67.1876 34.6181 67.1876 34.3509C67.1876 34.0836 66.9705 33.867 66.7027 33.867Z"/>
</mask>
<path d="M66.7027 33.867H66.7011V33.8653C66.7011 33.598 66.484 33.3815 66.2162 33.3815C65.9483 33.3815 65.7313 33.598 65.7313 33.8653V33.867H65.7296C65.4617 33.867 65.2448 34.0836 65.2448 34.3509C65.2448 34.6181 65.4618 34.8347 65.7296 34.8347H65.7313V34.8364C65.7313 35.1037 65.9483 35.3203 66.2162 35.3203C66.484 35.3203 66.7011 35.1037 66.7011 34.8364V34.8347H66.7027C66.9705 34.8347 67.1876 34.6181 67.1876 34.3509C67.1876 34.0836 66.9705 33.867 66.7027 33.867Z" fill="#1ACDB8"/>
<path d="M66.7027 33.867H66.7011V33.8653C66.7011 33.598 66.484 33.3815 66.2162 33.3815C65.9483 33.3815 65.7313 33.598 65.7313 33.8653V33.867H65.7296C65.4617 33.867 65.2448 34.0836 65.2448 34.3509C65.2448 34.6181 65.4618 34.8347 65.7296 34.8347H65.7313V34.8364C65.7313 35.1037 65.9483 35.3203 66.2162 35.3203C66.484 35.3203 66.7011 35.1037 66.7011 34.8364V34.8347H66.7027C66.9705 34.8347 67.1876 34.6181 67.1876 34.3509C67.1876 34.0836 66.9705 33.867 66.7027 33.867Z" stroke="#1ACDB8" stroke-width="0.4" mask="url(#path-15-outside-13_923_303)"/>
<mask id="path-16-outside-14_923_303" maskUnits="userSpaceOnUse" x="55.6366" y="32.5139" width="10" height="3" fill="black">
<rect fill="white" x="55.6366" y="32.5139" width="10" height="3"/>
<path d="M63.9975 33.8671H60.0138C59.8618 33.6536 59.6127 33.5139 59.3305 33.5139C59.0482 33.5139 58.799 33.6536 58.6471 33.8671H57.1215C56.8537 33.8671 56.6366 34.0837 56.6366 34.3509C56.6366 34.6182 56.8537 34.8348 57.1215 34.8348H58.6471C58.7991 35.0482 59.0482 35.188 59.3305 35.188C59.6127 35.188 59.8618 35.0482 60.0138 34.8348H63.9975C64.2653 34.8348 64.4824 34.6182 64.4824 34.3509C64.4824 34.0837 64.2653 33.8671 63.9975 33.8671Z"/>
</mask>
<path d="M63.9975 33.8671H60.0138C59.8618 33.6536 59.6127 33.5139 59.3305 33.5139C59.0482 33.5139 58.799 33.6536 58.6471 33.8671H57.1215C56.8537 33.8671 56.6366 34.0837 56.6366 34.3509C56.6366 34.6182 56.8537 34.8348 57.1215 34.8348H58.6471C58.7991 35.0482 59.0482 35.188 59.3305 35.188C59.6127 35.188 59.8618 35.0482 60.0138 34.8348H63.9975C64.2653 34.8348 64.4824 34.6182 64.4824 34.3509C64.4824 34.0837 64.2653 33.8671 63.9975 33.8671Z" fill="#1ACDB8"/>
<path d="M63.9975 33.8671H60.0138C59.8618 33.6536 59.6127 33.5139 59.3305 33.5139C59.0482 33.5139 58.799 33.6536 58.6471 33.8671H57.1215C56.8537 33.8671 56.6366 34.0837 56.6366 34.3509C56.6366 34.6182 56.8537 34.8348 57.1215 34.8348H58.6471C58.7991 35.0482 59.0482 35.188 59.3305 35.188C59.6127 35.188 59.8618 35.0482 60.0138 34.8348H63.9975C64.2653 34.8348 64.4824 34.6182 64.4824 34.3509C64.4824 34.0837 64.2653 33.8671 63.9975 33.8671Z" stroke="#1ACDB8" stroke-width="0.4" mask="url(#path-16-outside-14_923_303)"/>
<mask id="path-17-outside-15_923_303" maskUnits="userSpaceOnUse" x="56.9773" y="24.6321" width="6" height="7" fill="black">
<rect fill="white" x="56.9773" y="24.6321" width="6" height="7"/>
<path d="M61.6023 30.4308L58.3599 28.7197C57.85 28.4505 57.8495 27.6947 58.36 27.4256L61.6025 25.7144C62.0808 25.4621 62.6778 25.8215 62.6778 26.3615V29.784C62.6778 30.2712 62.2767 30.6906 61.6023 30.4308ZM59.2082 28.0727L61.7081 29.3919V26.7534L59.2082 28.0727Z"/>
</mask>
<path d="M61.6023 30.4308L58.3599 28.7197C57.85 28.4505 57.8495 27.6947 58.36 27.4256L61.6025 25.7144C62.0808 25.4621 62.6778 25.8215 62.6778 26.3615V29.784C62.6778 30.2712 62.2767 30.6906 61.6023 30.4308ZM59.2082 28.0727L61.7081 29.3919V26.7534L59.2082 28.0727Z" fill="#1ACDB8"/>
<path d="M61.6023 30.4308L58.3599 28.7197C57.85 28.4505 57.8495 27.6947 58.36 27.4256L61.6025 25.7144C62.0808 25.4621 62.6778 25.8215 62.6778 26.3615V29.784C62.6778 30.2712 62.2767 30.6906 61.6023 30.4308ZM59.2082 28.0727L61.7081 29.3919V26.7534L59.2082 28.0727Z" stroke="#1ACDB8" stroke-width="0.4" mask="url(#path-17-outside-15_923_303)"/>
<mask id="path-18-outside-16_923_303" maskUnits="userSpaceOnUse" x="58.5637" y="47.1528" width="3" height="3" fill="black">
<rect fill="white" x="58.5637" y="47.1528" width="3" height="3"/>
<path d="M60.1861 49.3955C60.5298 49.3955 60.8085 49.1173 60.8085 48.7741C60.8085 48.431 60.5298 48.1528 60.1861 48.1528C59.8424 48.1528 59.5637 48.431 59.5637 48.7741C59.5637 49.1173 59.8424 49.3955 60.1861 49.3955Z"/>
</mask>
<path d="M60.1861 49.3955C60.5298 49.3955 60.8085 49.1173 60.8085 48.7741C60.8085 48.431 60.5298 48.1528 60.1861 48.1528C59.8424 48.1528 59.5637 48.431 59.5637 48.7741C59.5637 49.1173 59.8424 49.3955 60.1861 49.3955Z" fill="#1ACDB8"/>
<path d="M60.1861 49.3955C60.5298 49.3955 60.8085 49.1173 60.8085 48.7741C60.8085 48.431 60.5298 48.1528 60.1861 48.1528C59.8424 48.1528 59.5637 48.431 59.5637 48.7741C59.5637 49.1173 59.8424 49.3955 60.1861 49.3955Z" stroke="#1ACDB8" stroke-width="0.4" mask="url(#path-18-outside-16_923_303)"/>
<mask id="path-19-outside-17_923_303" maskUnits="userSpaceOnUse" x="66.7552" y="28.8704" width="3" height="3" fill="black">
<rect fill="white" x="66.7552" y="28.8704" width="3" height="3"/>
<path d="M68.3776 31.113C68.7213 31.113 69 30.8348 69 30.4917C69 30.1485 68.7213 29.8704 68.3776 29.8704C68.0339 29.8704 67.7552 30.1485 67.7552 30.4917C67.7552 30.8348 68.0339 31.113 68.3776 31.113Z"/>
</mask>
<path d="M68.3776 31.113C68.7213 31.113 69 30.8348 69 30.4917C69 30.1485 68.7213 29.8704 68.3776 29.8704C68.0339 29.8704 67.7552 30.1485 67.7552 30.4917C67.7552 30.8348 68.0339 31.113 68.3776 31.113Z" fill="#1ACDB8"/>
<path d="M68.3776 31.113C68.7213 31.113 69 30.8348 69 30.4917C69 30.1485 68.7213 29.8704 68.3776 29.8704C68.0339 29.8704 67.7552 30.1485 67.7552 30.4917C67.7552 30.8348 68.0339 31.113 68.3776 31.113Z" stroke="#1ACDB8" stroke-width="0.4" mask="url(#path-19-outside-17_923_303)"/>
<mask id="path-20-outside-18_923_303" maskUnits="userSpaceOnUse" x="20" y="26.9147" width="6" height="12" fill="black">
<rect fill="white" x="20" y="26.9147" width="6" height="12"/>
<path d="M25.1772 38.4177H21.4849C21.2171 38.4177 21 38.2011 21 37.9338V28.3985C21 28.1312 21.2171 27.9147 21.4849 27.9147H25.1772C25.4451 27.9147 25.6621 28.1312 25.6621 28.3985V37.9338C25.662 38.2011 25.445 38.4177 25.1772 38.4177ZM21.9697 37.4499H24.6924V28.8824H21.9697V37.4499Z"/>
</mask>
<path d="M25.1772 38.4177H21.4849C21.2171 38.4177 21 38.2011 21 37.9338V28.3985C21 28.1312 21.2171 27.9147 21.4849 27.9147H25.1772C25.4451 27.9147 25.6621 28.1312 25.6621 28.3985V37.9338C25.662 38.2011 25.445 38.4177 25.1772 38.4177ZM21.9697 37.4499H24.6924V28.8824H21.9697V37.4499Z" fill="#1ACDB8"/>
<path d="M25.1772 38.4177H21.4849C21.2171 38.4177 21 38.2011 21 37.9338V28.3985C21 28.1312 21.2171 27.9147 21.4849 27.9147H25.1772C25.4451 27.9147 25.6621 28.1312 25.6621 28.3985V37.9338C25.662 38.2011 25.445 38.4177 25.1772 38.4177ZM21.9697 37.4499H24.6924V28.8824H21.9697V37.4499Z" stroke="#1ACDB8" stroke-width="0.4" mask="url(#path-20-outside-18_923_303)"/>
<mask id="path-21-outside-19_923_303" maskUnits="userSpaceOnUse" x="25.5145" y="20.0986" width="13" height="19" fill="black">
<rect fill="white" x="25.5145" y="20.0986" width="13" height="19"/>
<path d="M34.5463 38.6702H28.332C28.0642 38.6702 27.8472 38.4536 27.8472 38.1864C27.8472 37.9191 28.0643 37.7025 28.332 37.7025H34.5463C34.9449 37.7025 35.2692 37.379 35.2692 36.9814C35.2692 36.5796 34.9415 36.2527 34.5387 36.2527H33.1303C32.9191 36.2527 32.7327 36.1163 32.6685 35.9163C32.5667 35.6089 32.7997 35.2772 33.1278 35.2772H35.2269C35.6255 35.2772 35.9497 34.9537 35.9497 34.5561C35.9497 34.1544 35.6221 33.8275 35.2194 33.8275H33.5505C33.2908 33.8275 33.0724 33.6136 33.0623 33.3555C33.0518 33.0851 33.2751 32.8519 33.5462 32.8519H35.9075C36.3061 32.8519 36.6303 32.5284 36.6303 32.1309C36.6303 31.7291 36.3026 31.4023 35.8999 31.4023H33.6978C33.4299 31.4023 33.2129 31.1858 33.2129 30.9185C33.2129 30.6512 33.4299 30.4268 33.6978 30.4268H36.5882C36.9867 30.4268 37.3109 30.1034 37.3109 29.7057C37.3123 29.3091 36.9821 28.9771 36.5843 28.9771L30.3284 28.9641C30.3024 28.964 30.2765 28.9619 30.251 28.9578C29.9133 28.9026 29.7357 28.7339 29.6462 28.6021C29.5566 28.4703 29.4653 28.2431 29.5388 27.9095C29.5443 27.8845 29.5518 27.86 29.5612 27.8363C29.7805 27.2805 30.0586 26.4713 30.1444 26.0793C30.4066 24.8834 30.0388 23.5375 29.1569 22.4085C28.6792 24.2727 28.0958 25.8053 27.4192 26.9724C27.2851 27.2036 26.9883 27.2827 26.7567 27.149C26.5248 27.015 26.4457 26.7191 26.5797 26.4878C27.2936 25.2566 27.902 23.5679 28.388 21.4684C28.5286 20.8612 29.3115 21.1133 29.602 21.434C30.8894 22.8542 31.4465 24.6681 31.0917 26.2862C31.0012 26.6991 30.7579 27.4212 30.5386 27.9968L36.5852 28.0091C37.5115 28.0091 38.2837 28.783 38.2806 29.7072C38.2806 30.3701 37.8944 30.9456 37.3344 31.2212C37.5026 31.4842 37.6001 31.7962 37.6001 32.1308C37.6001 32.7949 37.2139 33.3707 36.6539 33.6464C36.8221 33.9095 36.9195 34.2216 36.9195 34.5561C36.9195 35.2203 36.5333 35.7961 35.9733 36.0718C36.1415 36.3349 36.239 36.6469 36.239 36.9815C36.239 37.9125 35.4797 38.6702 34.5463 38.6702Z"/>
</mask>
<path d="M34.5463 38.6702H28.332C28.0642 38.6702 27.8472 38.4536 27.8472 38.1864C27.8472 37.9191 28.0643 37.7025 28.332 37.7025H34.5463C34.9449 37.7025 35.2692 37.379 35.2692 36.9814C35.2692 36.5796 34.9415 36.2527 34.5387 36.2527H33.1303C32.9191 36.2527 32.7327 36.1163 32.6685 35.9163C32.5667 35.6089 32.7997 35.2772 33.1278 35.2772H35.2269C35.6255 35.2772 35.9497 34.9537 35.9497 34.5561C35.9497 34.1544 35.6221 33.8275 35.2194 33.8275H33.5505C33.2908 33.8275 33.0724 33.6136 33.0623 33.3555C33.0518 33.0851 33.2751 32.8519 33.5462 32.8519H35.9075C36.3061 32.8519 36.6303 32.5284 36.6303 32.1309C36.6303 31.7291 36.3026 31.4023 35.8999 31.4023H33.6978C33.4299 31.4023 33.2129 31.1858 33.2129 30.9185C33.2129 30.6512 33.4299 30.4268 33.6978 30.4268H36.5882C36.9867 30.4268 37.3109 30.1034 37.3109 29.7057C37.3123 29.3091 36.9821 28.9771 36.5843 28.9771L30.3284 28.9641C30.3024 28.964 30.2765 28.9619 30.251 28.9578C29.9133 28.9026 29.7357 28.7339 29.6462 28.6021C29.5566 28.4703 29.4653 28.2431 29.5388 27.9095C29.5443 27.8845 29.5518 27.86 29.5612 27.8363C29.7805 27.2805 30.0586 26.4713 30.1444 26.0793C30.4066 24.8834 30.0388 23.5375 29.1569 22.4085C28.6792 24.2727 28.0958 25.8053 27.4192 26.9724C27.2851 27.2036 26.9883 27.2827 26.7567 27.149C26.5248 27.015 26.4457 26.7191 26.5797 26.4878C27.2936 25.2566 27.902 23.5679 28.388 21.4684C28.5286 20.8612 29.3115 21.1133 29.602 21.434C30.8894 22.8542 31.4465 24.6681 31.0917 26.2862C31.0012 26.6991 30.7579 27.4212 30.5386 27.9968L36.5852 28.0091C37.5115 28.0091 38.2837 28.783 38.2806 29.7072C38.2806 30.3701 37.8944 30.9456 37.3344 31.2212C37.5026 31.4842 37.6001 31.7962 37.6001 32.1308C37.6001 32.7949 37.2139 33.3707 36.6539 33.6464C36.8221 33.9095 36.9195 34.2216 36.9195 34.5561C36.9195 35.2203 36.5333 35.7961 35.9733 36.0718C36.1415 36.3349 36.239 36.6469 36.239 36.9815C36.239 37.9125 35.4797 38.6702 34.5463 38.6702Z" fill="#1ACDB8"/>
<path d="M34.5463 38.6702H28.332C28.0642 38.6702 27.8472 38.4536 27.8472 38.1864C27.8472 37.9191 28.0643 37.7025 28.332 37.7025H34.5463C34.9449 37.7025 35.2692 37.379 35.2692 36.9814C35.2692 36.5796 34.9415 36.2527 34.5387 36.2527H33.1303C32.9191 36.2527 32.7327 36.1163 32.6685 35.9163C32.5667 35.6089 32.7997 35.2772 33.1278 35.2772H35.2269C35.6255 35.2772 35.9497 34.9537 35.9497 34.5561C35.9497 34.1544 35.6221 33.8275 35.2194 33.8275H33.5505C33.2908 33.8275 33.0724 33.6136 33.0623 33.3555C33.0518 33.0851 33.2751 32.8519 33.5462 32.8519H35.9075C36.3061 32.8519 36.6303 32.5284 36.6303 32.1309C36.6303 31.7291 36.3026 31.4023 35.8999 31.4023H33.6978C33.4299 31.4023 33.2129 31.1858 33.2129 30.9185C33.2129 30.6512 33.4299 30.4268 33.6978 30.4268H36.5882C36.9867 30.4268 37.3109 30.1034 37.3109 29.7057C37.3123 29.3091 36.9821 28.9771 36.5843 28.9771L30.3284 28.9641C30.3024 28.964 30.2765 28.9619 30.251 28.9578C29.9133 28.9026 29.7357 28.7339 29.6462 28.6021C29.5566 28.4703 29.4653 28.2431 29.5388 27.9095C29.5443 27.8845 29.5518 27.86 29.5612 27.8363C29.7805 27.2805 30.0586 26.4713 30.1444 26.0793C30.4066 24.8834 30.0388 23.5375 29.1569 22.4085C28.6792 24.2727 28.0958 25.8053 27.4192 26.9724C27.2851 27.2036 26.9883 27.2827 26.7567 27.149C26.5248 27.015 26.4457 26.7191 26.5797 26.4878C27.2936 25.2566 27.902 23.5679 28.388 21.4684C28.5286 20.8612 29.3115 21.1133 29.602 21.434C30.8894 22.8542 31.4465 24.6681 31.0917 26.2862C31.0012 26.6991 30.7579 27.4212 30.5386 27.9968L36.5852 28.0091C37.5115 28.0091 38.2837 28.783 38.2806 29.7072C38.2806 30.3701 37.8944 30.9456 37.3344 31.2212C37.5026 31.4842 37.6001 31.7962 37.6001 32.1308C37.6001 32.7949 37.2139 33.3707 36.6539 33.6464C36.8221 33.9095 36.9195 34.2216 36.9195 34.5561C36.9195 35.2203 36.5333 35.7961 35.9733 36.0718C36.1415 36.3349 36.239 36.6469 36.239 36.9815C36.239 37.9125 35.4797 38.6702 34.5463 38.6702Z" stroke="#1ACDB8" stroke-width="0.4" mask="url(#path-21-outside-19_923_303)"/>
<mask id="path-22-outside-20_923_303" maskUnits="userSpaceOnUse" x="21.6504" y="33.7911" width="3" height="3" fill="black">
<rect fill="white" x="21.6504" y="33.7911" width="3" height="3"/>
<path d="M23.331 36.1493C23.7069 36.1493 24.0117 35.8453 24.0117 35.4702C24.0117 35.0952 23.7069 34.7911 23.331 34.7911C22.9551 34.7911 22.6504 35.0952 22.6504 35.4702C22.6504 35.8453 22.9551 36.1493 23.331 36.1493Z"/>
</mask>
<path d="M23.331 36.1493C23.7069 36.1493 24.0117 35.8453 24.0117 35.4702C24.0117 35.0952 23.7069 34.7911 23.331 34.7911C22.9551 34.7911 22.6504 35.0952 22.6504 35.4702C22.6504 35.8453 22.9551 36.1493 23.331 36.1493Z" fill="#1ACDB8"/>
<path d="M23.331 36.1493C23.7069 36.1493 24.0117 35.8453 24.0117 35.4702C24.0117 35.0952 23.7069 34.7911 23.331 34.7911C22.9551 34.7911 22.6504 35.0952 22.6504 35.4702C22.6504 35.8453 22.9551 36.1493 23.331 36.1493Z" stroke="#1ACDB8" stroke-width="0.4" mask="url(#path-22-outside-20_923_303)"/>
<mask id="path-23-outside-21_923_303" maskUnits="userSpaceOnUse" x="23.7622" y="42.7374" width="4" height="5" fill="black">
<rect fill="white" x="23.7622" y="42.7374" width="4" height="5"/>
<path d="M27.2409 45.2543C27.2409 44.3187 26.7742 43.7374 26.0226 43.7374C25.2805 43.7374 24.7622 44.3871 24.7622 45.318C24.7708 46.3745 25.3838 46.8474 25.9877 46.8474C26.6116 46.8474 27.2409 46.3549 27.2409 45.2543ZM26.0019 46.1299C25.6323 46.1299 25.5911 45.5411 25.5968 45.296C25.5968 44.9837 25.6821 44.455 26.0019 44.455C26.3539 44.455 26.4065 44.9732 26.4065 45.2822C26.4064 45.5371 26.367 46.1299 26.0019 46.1299Z"/>
</mask>
<path d="M27.2409 45.2543C27.2409 44.3187 26.7742 43.7374 26.0226 43.7374C25.2805 43.7374 24.7622 44.3871 24.7622 45.318C24.7708 46.3745 25.3838 46.8474 25.9877 46.8474C26.6116 46.8474 27.2409 46.3549 27.2409 45.2543ZM26.0019 46.1299C25.6323 46.1299 25.5911 45.5411 25.5968 45.296C25.5968 44.9837 25.6821 44.455 26.0019 44.455C26.3539 44.455 26.4065 44.9732 26.4065 45.2822C26.4064 45.5371 26.367 46.1299 26.0019 46.1299Z" fill="#1ACDB8"/>
<path d="M27.2409 45.2543C27.2409 44.3187 26.7742 43.7374 26.0226 43.7374C25.2805 43.7374 24.7622 44.3871 24.7622 45.318C24.7708 46.3745 25.3838 46.8474 25.9877 46.8474C26.6116 46.8474 27.2409 46.3549 27.2409 45.2543ZM26.0019 46.1299C25.6323 46.1299 25.5911 45.5411 25.5968 45.296C25.5968 44.9837 25.6821 44.455 26.0019 44.455C26.3539 44.455 26.4065 44.9732 26.4065 45.2822C26.4064 45.5371 26.367 46.1299 26.0019 46.1299Z" stroke="#1ACDB8" stroke-width="0.4" mask="url(#path-23-outside-21_923_303)"/>
<mask id="path-24-outside-22_923_303" maskUnits="userSpaceOnUse" x="24.9955" y="42.7375" width="5" height="7" fill="black">
<rect fill="white" x="24.9955" y="42.7375" width="5" height="7"/>
<path d="M28.834 43.7375L25.9955 48.7349H26.7859L29.6245 43.7375H28.834Z"/>
</mask>
<path d="M28.834 43.7375L25.9955 48.7349H26.7859L29.6245 43.7375H28.834Z" fill="#1ACDB8"/>
<path d="M28.834 43.7375L25.9955 48.7349H26.7859L29.6245 43.7375H28.834Z" stroke="#1ACDB8" stroke-width="0.4" mask="url(#path-24-outside-22_923_303)"/>
<mask id="path-25-outside-23_923_303" maskUnits="userSpaceOnUse" x="27.2963" y="44.5973" width="4" height="5" fill="black">
<rect fill="white" x="27.2963" y="44.5973" width="4" height="5"/>
<path d="M29.5561 45.5973C28.929 45.5973 28.2963 46.0879 28.2963 47.1847C28.3041 48.2365 28.9172 48.7073 29.5212 48.7073C30.1416 48.7073 30.7675 48.2147 30.7675 47.1144C30.7676 46.1786 30.3033 45.5973 29.5561 45.5973ZM29.5353 47.9897C29.171 47.9897 29.1205 47.4099 29.1234 47.1558C29.1234 46.7507 29.2522 46.3148 29.5353 46.3148C29.901 46.3148 29.9405 46.8933 29.9405 47.142C29.9405 47.3969 29.901 47.9897 29.5353 47.9897Z"/>
</mask>
<path d="M29.5561 45.5973C28.929 45.5973 28.2963 46.0879 28.2963 47.1847C28.3041 48.2365 28.9172 48.7073 29.5212 48.7073C30.1416 48.7073 30.7675 48.2147 30.7675 47.1144C30.7676 46.1786 30.3033 45.5973 29.5561 45.5973ZM29.5353 47.9897C29.171 47.9897 29.1205 47.4099 29.1234 47.1558C29.1234 46.7507 29.2522 46.3148 29.5353 46.3148C29.901 46.3148 29.9405 46.8933 29.9405 47.142C29.9405 47.3969 29.901 47.9897 29.5353 47.9897Z" fill="#1ACDB8"/>
<path d="M29.5561 45.5973C28.929 45.5973 28.2963 46.0879 28.2963 47.1847C28.3041 48.2365 28.9172 48.7073 29.5212 48.7073C30.1416 48.7073 30.7675 48.2147 30.7675 47.1144C30.7676 46.1786 30.3033 45.5973 29.5561 45.5973ZM29.5353 47.9897C29.171 47.9897 29.1205 47.4099 29.1234 47.1558C29.1234 46.7507 29.2522 46.3148 29.5353 46.3148C29.901 46.3148 29.9405 46.8933 29.9405 47.142C29.9405 47.3969 29.901 47.9897 29.5353 47.9897Z" stroke="#1ACDB8" stroke-width="0.4" mask="url(#path-25-outside-23_923_303)"/>
<mask id="path-26-outside-24_923_303" maskUnits="userSpaceOnUse" x="60.9077" y="51.9698" width="4" height="6" fill="black">
<rect fill="white" x="60.9077" y="51.9698" width="4" height="6"/>
<path d="M62.6989 54.4273C62.6989 54.2697 62.8126 54.1013 63.1317 54.1013C63.4109 54.1013 63.6338 54.206 63.8687 54.3402L64.0946 53.7447C63.8838 53.605 63.6473 53.5218 63.3955 53.4934V52.9698H62.7918V53.5304C62.3222 53.651 61.9856 54.0184 61.9856 54.491C61.9856 55.074 62.4444 55.3349 62.9412 55.5295C63.3973 55.7142 63.4592 55.8841 63.4592 56.0403C63.4592 56.2734 63.257 56.4301 62.957 56.4301C62.6406 56.4301 62.381 56.3018 62.125 56.1313L61.9077 56.7364C62.1363 56.9248 62.4322 57.0162 62.7246 57.0444V57.6132H63.3283V57.0112C63.865 56.8853 64.1741 56.4916 64.1741 56.0031C64.1741 55.3622 63.6974 55.0831 63.277 54.9117C62.7823 54.7075 62.6989 54.5972 62.6989 54.4273Z"/>
</mask>
<path d="M62.6989 54.4273C62.6989 54.2697 62.8126 54.1013 63.1317 54.1013C63.4109 54.1013 63.6338 54.206 63.8687 54.3402L64.0946 53.7447C63.8838 53.605 63.6473 53.5218 63.3955 53.4934V52.9698H62.7918V53.5304C62.3222 53.651 61.9856 54.0184 61.9856 54.491C61.9856 55.074 62.4444 55.3349 62.9412 55.5295C63.3973 55.7142 63.4592 55.8841 63.4592 56.0403C63.4592 56.2734 63.257 56.4301 62.957 56.4301C62.6406 56.4301 62.381 56.3018 62.125 56.1313L61.9077 56.7364C62.1363 56.9248 62.4322 57.0162 62.7246 57.0444V57.6132H63.3283V57.0112C63.865 56.8853 64.1741 56.4916 64.1741 56.0031C64.1741 55.3622 63.6974 55.0831 63.277 54.9117C62.7823 54.7075 62.6989 54.5972 62.6989 54.4273Z" fill="#1ACDB8"/>
<path d="M62.6989 54.4273C62.6989 54.2697 62.8126 54.1013 63.1317 54.1013C63.4109 54.1013 63.6338 54.206 63.8687 54.3402L64.0946 53.7447C63.8838 53.605 63.6473 53.5218 63.3955 53.4934V52.9698H62.7918V53.5304C62.3222 53.651 61.9856 54.0184 61.9856 54.491C61.9856 55.074 62.4444 55.3349 62.9412 55.5295C63.3973 55.7142 63.4592 55.8841 63.4592 56.0403C63.4592 56.2734 63.257 56.4301 62.957 56.4301C62.6406 56.4301 62.381 56.3018 62.125 56.1313L61.9077 56.7364C62.1363 56.9248 62.4322 57.0162 62.7246 57.0444V57.6132H63.3283V57.0112C63.865 56.8853 64.1741 56.4916 64.1741 56.0031C64.1741 55.3622 63.6974 55.0831 63.277 54.9117C62.7823 54.7075 62.6989 54.5972 62.6989 54.4273Z" stroke="#1ACDB8" stroke-width="0.4" mask="url(#path-26-outside-24_923_303)"/>
<mask id="path-27-outside-25_923_303" maskUnits="userSpaceOnUse" x="42.4054" y="24.1405" width="4" height="6" fill="black">
<rect fill="white" x="42.4054" y="24.1405" width="4" height="6"/>
<path d="M44.7747 27.0825C44.28 26.8782 44.1965 26.7679 44.1965 26.598C44.1965 26.4403 44.3103 26.272 44.6294 26.272C44.9086 26.272 45.1315 26.3767 45.3664 26.5108L45.5923 25.9153C45.3815 25.7756 45.145 25.6925 44.8932 25.6641V25.1405H44.2895V25.701C43.8199 25.8216 43.4833 26.189 43.4833 26.6616C43.4833 27.2446 43.9421 27.5056 44.4388 27.7002C44.895 27.8849 44.9569 28.0548 44.9569 28.211C44.9569 28.4441 44.7547 28.6007 44.4547 28.6007C44.1383 28.6007 43.8787 28.4725 43.6226 28.302L43.4054 28.9071C43.634 29.0954 43.9298 29.1868 44.2223 29.215V29.7838H44.826V29.1818C45.3626 29.056 45.6718 28.6623 45.6718 28.1737C45.6719 27.5329 45.1952 27.2538 44.7747 27.0825C45.1952 27.2538 44.2801 26.8782 44.7747 27.0825Z"/>
</mask>
<path d="M44.7747 27.0825C44.28 26.8782 44.1965 26.7679 44.1965 26.598C44.1965 26.4403 44.3103 26.272 44.6294 26.272C44.9086 26.272 45.1315 26.3767 45.3664 26.5108L45.5923 25.9153C45.3815 25.7756 45.145 25.6925 44.8932 25.6641V25.1405H44.2895V25.701C43.8199 25.8216 43.4833 26.189 43.4833 26.6616C43.4833 27.2446 43.9421 27.5056 44.4388 27.7002C44.895 27.8849 44.9569 28.0548 44.9569 28.211C44.9569 28.4441 44.7547 28.6007 44.4547 28.6007C44.1383 28.6007 43.8787 28.4725 43.6226 28.302L43.4054 28.9071C43.634 29.0954 43.9298 29.1868 44.2223 29.215V29.7838H44.826V29.1818C45.3626 29.056 45.6718 28.6623 45.6718 28.1737C45.6719 27.5329 45.1952 27.2538 44.7747 27.0825C45.1952 27.2538 44.2801 26.8782 44.7747 27.0825Z" fill="#1ACDB8"/>
<path d="M44.7747 27.0825L44.6984 27.2673L44.6993 27.2677L44.7747 27.0825ZM45.3664 26.5108L45.2672 26.6845L45.4704 26.8005L45.5534 26.5817L45.3664 26.5108ZM45.5923 25.9153L45.7793 25.9863L45.8359 25.8369L45.7027 25.7486L45.5923 25.9153ZM44.8932 25.6641H44.6932V25.8428L44.8708 25.8628L44.8932 25.6641ZM44.8932 25.1405H45.0932V24.9405H44.8932V25.1405ZM44.2895 25.1405V24.9405H44.0895V25.1405H44.2895ZM44.2895 25.701L44.3392 25.8948L44.4895 25.8562V25.701H44.2895ZM44.4388 27.7002L44.5139 27.5148L44.5118 27.5139L44.4388 27.7002ZM43.6226 28.302L43.7335 28.1355L43.5208 27.9938L43.4344 28.2344L43.6226 28.302ZM43.4054 28.9071L43.2172 28.8395L43.1696 28.9719L43.2782 29.0614L43.4054 28.9071ZM44.2223 29.215H44.4223V29.0334L44.2415 29.016L44.2223 29.215ZM44.2223 29.7838H44.0223V29.9838H44.2223V29.7838ZM44.826 29.7838V29.9838H45.026V29.7838H44.826ZM44.826 29.1818L44.7803 28.9871L44.626 29.0233V29.1818H44.826ZM45.6718 28.1737L45.4718 28.1737V28.1737H45.6718ZM44.8511 26.8976C44.6045 26.7958 44.4887 26.7279 44.4338 26.6786C44.4101 26.6573 44.404 26.6448 44.402 26.6399C44.3997 26.6345 44.3965 26.6239 44.3965 26.598H43.9965C43.9965 26.657 44.0038 26.724 44.0326 26.7934C44.0617 26.8634 44.1074 26.923 44.1664 26.9761C44.2769 27.0755 44.4502 27.1648 44.6984 27.2673L44.8511 26.8976ZM44.3965 26.598C44.3965 26.5677 44.4066 26.543 44.4275 26.5242C44.4491 26.5046 44.5042 26.472 44.6294 26.472V26.072C44.4355 26.072 44.2742 26.1235 44.1591 26.2275C44.0433 26.3323 43.9965 26.4706 43.9965 26.598H44.3965ZM44.6294 26.472C44.8542 26.472 45.0391 26.5543 45.2672 26.6845L45.4655 26.3371C45.2238 26.1991 44.9629 26.072 44.6294 26.072V26.472ZM45.5534 26.5817L45.7793 25.9863L45.4053 25.8444L45.1794 26.4399L45.5534 26.5817ZM45.7027 25.7486C45.4643 25.5906 45.1974 25.4971 44.9156 25.4653L44.8708 25.8628C45.0926 25.8879 45.2986 25.9607 45.4818 26.082L45.7027 25.7486ZM45.0932 25.6641V25.1405H44.6932V25.6641H45.0932ZM44.8932 24.9405H44.2895V25.3405H44.8932V24.9405ZM44.0895 25.1405V25.701H44.4895V25.1405H44.0895ZM44.2397 25.5073C43.6989 25.6462 43.2833 26.0811 43.2833 26.6616H43.6833C43.6833 26.2969 43.9409 25.997 44.3392 25.8948L44.2397 25.5073ZM43.2833 26.6616C43.2833 27.0149 43.4259 27.2776 43.6395 27.4738C43.845 27.6626 44.1132 27.7874 44.3659 27.8864L44.5118 27.5139C44.2678 27.4183 44.0582 27.3153 43.9101 27.1793C43.77 27.0506 43.6833 26.8913 43.6833 26.6616H43.2833ZM44.3638 27.8855C44.5792 27.9727 44.6744 28.0463 44.7167 28.0959C44.7504 28.1355 44.7569 28.1666 44.7569 28.211H45.1569C45.1569 28.0992 45.1324 27.9671 45.0212 27.8366C44.9185 27.716 44.7547 27.6123 44.5139 27.5148L44.3638 27.8855ZM44.7569 28.211C44.7569 28.2638 44.7364 28.3036 44.6957 28.3352C44.6508 28.37 44.5718 28.4007 44.4547 28.4007V28.8007C44.6376 28.8007 44.8096 28.7531 44.9409 28.6513C45.0762 28.5463 45.1569 28.3913 45.1569 28.211H44.7569ZM44.4547 28.4007C44.1969 28.4007 43.9774 28.2979 43.7335 28.1355L43.5118 28.4684C43.7799 28.647 44.0797 28.8007 44.4547 28.8007V28.4007ZM43.4344 28.2344L43.2172 28.8395L43.5936 28.9746L43.8109 28.3696L43.4344 28.2344ZM43.2782 29.0614C43.5471 29.2829 43.8854 29.3834 44.203 29.4141L44.2415 29.016C43.9743 28.9902 43.7209 28.9079 43.5326 28.7527L43.2782 29.0614ZM44.0223 29.215V29.7838H44.4223V29.215H44.0223ZM44.2223 29.9838H44.826V29.5838H44.2223V29.9838ZM45.026 29.7838V29.1818H44.626V29.7838H45.026ZM44.8717 29.3765C45.4924 29.231 45.8718 28.7615 45.8718 28.1737H45.4718C45.4718 28.563 45.2329 28.881 44.7803 28.9871L44.8717 29.3765ZM45.8718 28.1737C45.8718 27.7964 45.7287 27.5165 45.5222 27.3105C45.3219 27.1107 45.0679 26.986 44.8502 26.8973L44.6993 27.2677C44.9021 27.3504 45.0966 27.4509 45.2397 27.5937C45.3766 27.7302 45.4718 27.9103 45.4718 28.1737L45.8718 28.1737ZM44.8511 26.8976C44.7893 26.8721 44.7496 26.8557 44.7267 26.8462C44.7151 26.8413 44.7082 26.8385 44.705 26.8371C44.7042 26.8368 44.7039 26.8367 44.704 26.8367C44.704 26.8367 44.7044 26.8369 44.7051 26.8372C44.7054 26.8373 44.706 26.8376 44.7068 26.8379C44.7074 26.8382 44.709 26.839 44.7111 26.84C44.7122 26.8405 44.7149 26.8418 44.7165 26.8427C44.7191 26.8441 44.7267 26.8484 44.7316 26.8514C44.7446 26.8606 44.814 26.9583 44.819 27.0627C44.7483 27.1762 44.603 27.2188 44.5842 27.2159C44.5779 27.2145 44.5686 27.2121 44.5655 27.2112C44.5637 27.2106 44.5607 27.2097 44.5595 27.2093C44.5572 27.2085 44.5555 27.2078 44.5549 27.2076C44.5534 27.2071 44.5524 27.2067 44.5522 27.2066C44.5519 27.2065 44.5517 27.2064 44.5518 27.2064C44.553 27.2069 44.5573 27.2086 44.5649 27.2118C44.5721 27.2147 44.5816 27.2185 44.5925 27.223C44.6145 27.232 44.6424 27.2434 44.671 27.2552C44.7284 27.2787 44.7872 27.3029 44.8053 27.3105C44.8077 27.3115 44.8085 27.3119 44.8084 27.3118C44.8083 27.3118 44.8078 27.3116 44.807 27.3112C44.8067 27.3111 44.806 27.3108 44.8051 27.3103C44.8044 27.31 44.8025 27.3092 44.8002 27.308C44.7989 27.3074 44.7958 27.3058 44.794 27.3048C44.7909 27.3031 44.7819 27.2977 44.776 27.2939C44.7597 27.2815 44.69 27.1508 44.7177 27.0249C44.7923 26.9535 44.9097 26.9298 44.9268 26.9324C44.933 26.9337 44.9423 26.936 44.9454 26.9369C44.9473 26.9375 44.9505 26.9385 44.9517 26.9389C44.9541 26.9397 44.956 26.9403 44.9567 26.9406C44.9582 26.9412 44.9594 26.9416 44.9595 26.9417C44.9599 26.9418 44.9601 26.9419 44.96 26.9418C44.9599 26.9418 44.9594 26.9416 44.9585 26.9412C44.9567 26.9405 44.9539 26.9394 44.95 26.9378C44.9342 26.9315 44.9028 26.9187 44.8502 26.8973L44.6993 27.2677C44.7518 27.2891 44.7838 27.3021 44.8004 27.3088C44.8045 27.3105 44.8079 27.3118 44.8105 27.3128C44.8117 27.3134 44.813 27.3139 44.8142 27.3143C44.8148 27.3146 44.8156 27.3149 44.8164 27.3152C44.817 27.3154 44.8185 27.316 44.8203 27.3166C44.8211 27.3169 44.8231 27.3176 44.8255 27.3185C44.8268 27.3189 44.83 27.3199 44.8319 27.3205C44.8351 27.3214 44.8444 27.3237 44.8506 27.325C44.8677 27.3276 44.9852 27.3039 45.0597 27.2324C45.0875 27.1066 45.0178 26.9759 45.0015 26.9635C44.9956 26.9596 44.9865 26.9542 44.9834 26.9525C44.9815 26.9515 44.9784 26.9499 44.9771 26.9493C44.9747 26.9481 44.9727 26.9472 44.972 26.9468C44.971 26.9464 44.9701 26.946 44.9696 26.9457C44.9685 26.9453 44.9676 26.9449 44.967 26.9446C44.9648 26.9437 44.9621 26.9425 44.9598 26.9416C44.9401 26.9333 44.8798 26.9085 44.8229 26.8851C44.7942 26.8734 44.7661 26.8618 44.7439 26.8528C44.7328 26.8482 44.7231 26.8443 44.7156 26.8412C44.7084 26.8383 44.7021 26.8358 44.6986 26.8344C44.698 26.8341 44.6973 26.8339 44.6966 26.8336C44.696 26.8334 44.6946 26.8328 44.6929 26.8322C44.6922 26.8319 44.6904 26.8313 44.688 26.8305C44.6868 26.83 44.6837 26.8291 44.6819 26.8285C44.6788 26.8276 44.6694 26.8251 44.6631 26.8238C44.6444 26.8209 44.499 26.8634 44.4283 26.977C44.4334 27.0814 44.5027 27.1791 44.5158 27.1882C44.5207 27.1913 44.5283 27.1956 44.531 27.1971C44.5326 27.1979 44.5353 27.1993 44.5364 27.1998C44.5386 27.2008 44.5403 27.2016 44.541 27.202C44.5419 27.2024 44.5426 27.2027 44.5431 27.2029C44.5441 27.2034 44.545 27.2037 44.5456 27.204C44.5468 27.2045 44.548 27.205 44.5492 27.2055C44.5537 27.2075 44.5617 27.2108 44.5732 27.2156C44.5966 27.2253 44.6365 27.2418 44.6984 27.2673L44.8511 26.8976Z" fill="#1ACDB8" mask="url(#path-27-outside-25_923_303)"/>
</g>
<defs>
<filter id="filter0_d_923_303" x="0" y="0" width="90" height="90" filterUnits="userSpaceOnUse" color-interpolation-filters="sRGB">
<feFlood flood-opacity="0" result="BackgroundImageFix"/>
<feColorMatrix in="SourceAlpha" type="matrix" values="0 0 0 0 0 0 0 0 0 0 0 0 0 0 0 0 0 0 127 0" result="hardAlpha"/>
<feOffset/>
<feGaussianBlur stdDeviation="2.5"/>
<feComposite in2="hardAlpha" operator="out"/>
<feColorMatrix type="matrix" values="0 0 0 0 0 0 0 0 0 0 0 0 0 0 0 0 0 0 0.25 0"/>
<feBlend mode="normal" in2="BackgroundImageFix" result="effect1_dropShadow_923_303"/>
<feBlend mode="normal" in="SourceGraphic" in2="effect1_dropShadow_923_303" result="shape"/>
</filter>
<radialGradient id="paint0_radial_923_303" cx="0" cy="0" r="1" gradientUnits="userSpaceOnUse" gradientTransform="translate(45 45) rotate(90) scale(47.5)">
<stop stop-color="white"/>
<stop offset="1" stop-color="#EDEDED"/>
</radialGradient>
<clipPath id="clip0_923_303">
<rect width="48" height="48" fill="white" transform="translate(21 21)"/>
</clipPath>
</defs>
</svg>
