<svg width="90" height="90" viewBox="0 0 90 90" fill="none" xmlns="http://www.w3.org/2000/svg">
<g filter="url(#filter0_d_923_259)">
<rect x="5" y="5" width="80" height="80" rx="24" fill="url(#paint0_radial_923_259)"/>
</g>
<path d="M33.6612 26.9443H47.0291" stroke="#1ACDB8" stroke-width="2" stroke-miterlimit="10" stroke-linecap="round" stroke-linejoin="round"/>
<mask id="mask0_923_259" style="mask-type:luminance" maskUnits="userSpaceOnUse" x="19" y="20" width="52" height="52">
<path d="M19.6105 20.6106H70.3895V71.3895H19.6105V20.6106Z" fill="white"/>
</mask>
<g mask="url(#mask0_923_259)">
<path d="M53.1465 26.9444C53.1465 27.3547 52.8139 27.6873 52.4037 27.6873C51.9935 27.6873 51.6608 27.3547 51.6608 26.9444C51.6608 26.5341 51.9935 26.2016 52.4037 26.2016C52.8139 26.2016 53.1465 26.5341 53.1465 26.9444Z" fill="#1ACDB8"/>
<path d="M56.3389 26.9444C56.3389 27.3547 56.0063 27.6873 55.596 27.6873C55.1858 27.6873 54.8532 27.3547 54.8532 26.9444C54.8532 26.5341 55.1858 26.2016 55.596 26.2016C56.0063 26.2016 56.3389 26.5341 56.3389 26.9444Z" fill="#1ACDB8"/>
<path d="M59.5115 58.6023H30.4884V24.7219C30.4884 24.2903 30.8384 23.9404 31.27 23.9404H58.73C59.1616 23.9404 59.5115 24.2903 59.5115 24.7219V58.6023Z" stroke="#1ACDB8" stroke-width="2" stroke-miterlimit="10" stroke-linecap="round" stroke-linejoin="round"/>
<path d="M37.0513 29.9485H59.5116" stroke="#1ACDB8" stroke-width="2" stroke-miterlimit="10" stroke-linecap="round" stroke-linejoin="round"/>
<path d="M30.4885 29.9485H33.5739" stroke="#1ACDB8" stroke-width="2" stroke-miterlimit="10" stroke-linecap="round" stroke-linejoin="round"/>
<path d="M30.4885 37.1434H27.8081C27.4323 37.1434 27.1276 37.4481 27.1276 37.8239V57.9217C27.1276 58.2976 27.4323 58.6023 27.8081 58.6023H62.192C62.5678 58.6023 62.8724 58.2976 62.8724 57.9217V37.8239C62.8724 37.4481 62.5678 37.1434 62.192 37.1434H59.5116" stroke="#1ACDB8" stroke-width="2" stroke-miterlimit="10" stroke-linecap="round" stroke-linejoin="round"/>
<path d="M30.4885 33.6518H26.2145C24.7904 33.6518 23.636 34.8062 23.636 36.2303V62.0939" stroke="#1ACDB8" stroke-width="2" stroke-miterlimit="10" stroke-linecap="round" stroke-linejoin="round"/>
<path d="M66.364 52.9977V36.2303C66.364 34.8062 65.2096 33.6519 63.7855 33.6519H59.5115" stroke="#1ACDB8" stroke-width="2" stroke-miterlimit="10" stroke-linecap="round" stroke-linejoin="round"/>
<path d="M66.364 62.0939V56.4772" stroke="#1ACDB8" stroke-width="2" stroke-miterlimit="10" stroke-linecap="round" stroke-linejoin="round"/>
<path d="M64.912 68.0598H25.088C22.4737 68.0598 20.3544 65.9405 20.3544 63.3262C20.3544 62.6456 20.9061 62.0939 21.5867 62.0939H68.4134C69.0939 62.0939 69.6456 62.6456 69.6456 63.3262C69.6456 65.9405 67.5263 68.0598 64.912 68.0598Z" stroke="#1ACDB8" stroke-width="2" stroke-miterlimit="10" stroke-linecap="round" stroke-linejoin="round"/>
<path d="M37.0857 62.0938V63.5853C37.0857 64.409 37.7534 65.0768 38.5772 65.0768H51.4229C52.2466 65.0768 52.9144 64.409 52.9144 63.5853V62.0938" stroke="#1ACDB8" stroke-width="2" stroke-miterlimit="10" stroke-linecap="round" stroke-linejoin="round"/>
<path d="M43.3145 48.8195L41.6352 42.3017" stroke="#1ACDB8" stroke-width="2" stroke-miterlimit="10" stroke-linecap="round" stroke-linejoin="round"/>
<path d="M54.7841 52.0527C55.5367 51.8588 55.9895 51.0916 55.7956 50.339L51.8283 34.9403C51.6344 34.1877 50.8671 33.7349 50.1145 33.9288C49.3621 34.1227 48.9091 34.8899 49.103 35.6425L53.0704 51.0412C53.2643 51.7937 54.0315 52.2466 54.7841 52.0527Z" stroke="#1ACDB8" stroke-width="2" stroke-miterlimit="10" stroke-linecap="round" stroke-linejoin="round"/>
<path d="M35.8965 45.0566L34.7295 45.3573C33.9311 45.563 33.4506 46.377 33.6563 47.1754L34.0287 48.6211C34.2345 49.4194 35.0484 49.9 35.8469 49.6943L37.0164 49.393C37.0112 49.3762 37.0053 49.36 37.0008 49.3429" stroke="#1ACDB8" stroke-width="2" stroke-miterlimit="10" stroke-linecap="round" stroke-linejoin="round"/>
<path d="M49.1698 35.9014C48.1231 38.931 45.6211 41.2747 42.4631 42.0884L36.6227 43.5931C36.0514 43.7403 35.7075 44.3229 35.8547 44.8942L37.0009 49.3427C37.1481 49.9142 37.7307 50.2581 38.302 50.1108L44.1424 48.6061C47.3004 47.7924 50.6234 48.6354 53.0037 50.7821" stroke="#1ACDB8" stroke-width="2" stroke-miterlimit="10" stroke-linecap="round" stroke-linejoin="round"/>
<path d="M42.3606 49.0651L43.5408 53.6457C43.6371 54.0194 43.4122 54.4004 43.0384 54.4967L42.1941 54.7142C41.9052 54.7886 41.6008 54.6714 41.4366 54.4223L38.5499 50.0468" stroke="#1ACDB8" stroke-width="2" stroke-miterlimit="10" stroke-linecap="round" stroke-linejoin="round"/>
</g>
<defs>
<filter id="filter0_d_923_259" x="0" y="0" width="90" height="90" filterUnits="userSpaceOnUse" color-interpolation-filters="sRGB">
<feFlood flood-opacity="0" result="BackgroundImageFix"/>
<feColorMatrix in="SourceAlpha" type="matrix" values="0 0 0 0 0 0 0 0 0 0 0 0 0 0 0 0 0 0 127 0" result="hardAlpha"/>
<feOffset/>
<feGaussianBlur stdDeviation="2.5"/>
<feComposite in2="hardAlpha" operator="out"/>
<feColorMatrix type="matrix" values="0 0 0 0 0 0 0 0 0 0 0 0 0 0 0 0 0 0 0.25 0"/>
<feBlend mode="normal" in2="BackgroundImageFix" result="effect1_dropShadow_923_259"/>
<feBlend mode="normal" in="SourceGraphic" in2="effect1_dropShadow_923_259" result="shape"/>
</filter>
<radialGradient id="paint0_radial_923_259" cx="0" cy="0" r="1" gradientUnits="userSpaceOnUse" gradientTransform="translate(45 45) rotate(90) scale(47.5)">
<stop stop-color="white"/>
<stop offset="1" stop-color="#EDEDED"/>
</radialGradient>
</defs>
</svg>
