<svg width="90" height="90" viewBox="0 0 90 90" fill="none" xmlns="http://www.w3.org/2000/svg">
<g filter="url(#filter0_d_923_260)">
<rect x="5" y="5" width="80" height="80" rx="24" fill="url(#paint0_radial_923_260)"/>
</g>
<g clip-path="url(#clip0_923_260)">
<mask id="path-2-outside-1_923_260" maskUnits="userSpaceOnUse" x="26.8296" y="30.208" width="4" height="4" fill="black">
<rect fill="white" x="26.8296" y="30.208" width="4" height="4"/>
<path d="M28.8157 33.1803C29.3604 33.1803 29.8019 32.7388 29.8019 32.1942C29.8019 31.6495 29.3604 31.208 28.8157 31.208C28.2711 31.208 27.8296 31.6495 27.8296 32.1942C27.8296 32.7388 28.2711 33.1803 28.8157 33.1803Z"/>
</mask>
<path d="M28.8157 33.1803C29.3604 33.1803 29.8019 32.7388 29.8019 32.1942C29.8019 31.6495 29.3604 31.208 28.8157 31.208C28.2711 31.208 27.8296 31.6495 27.8296 32.1942C27.8296 32.7388 28.2711 33.1803 28.8157 33.1803Z" fill="#1ACDB8"/>
<path d="M28.8157 33.1803C29.3604 33.1803 29.8019 32.7388 29.8019 32.1942C29.8019 31.6495 29.3604 31.208 28.8157 31.208C28.2711 31.208 27.8296 31.6495 27.8296 32.1942C27.8296 32.7388 28.2711 33.1803 28.8157 33.1803Z" stroke="#1ACDB8" stroke-width="0.4" mask="url(#path-2-outside-1_923_260)"/>
<mask id="path-3-outside-2_923_260" maskUnits="userSpaceOnUse" x="30.5797" y="30.208" width="4" height="4" fill="black">
<rect fill="white" x="30.5797" y="30.208" width="4" height="4"/>
<path d="M32.5659 33.1803C33.1105 33.1803 33.552 32.7388 33.552 32.1942C33.552 31.6495 33.1105 31.208 32.5659 31.208C32.0212 31.208 31.5797 31.6495 31.5797 32.1942C31.5797 32.7388 32.0212 33.1803 32.5659 33.1803Z"/>
</mask>
<path d="M32.5659 33.1803C33.1105 33.1803 33.552 32.7388 33.552 32.1942C33.552 31.6495 33.1105 31.208 32.5659 31.208C32.0212 31.208 31.5797 31.6495 31.5797 32.1942C31.5797 32.7388 32.0212 33.1803 32.5659 33.1803Z" fill="#1ACDB8"/>
<path d="M32.5659 33.1803C33.1105 33.1803 33.552 32.7388 33.552 32.1942C33.552 31.6495 33.1105 31.208 32.5659 31.208C32.0212 31.208 31.5797 31.6495 31.5797 32.1942C31.5797 32.7388 32.0212 33.1803 32.5659 33.1803Z" stroke="#1ACDB8" stroke-width="0.4" mask="url(#path-3-outside-2_923_260)"/>
<mask id="path-4-outside-3_923_260" maskUnits="userSpaceOnUse" x="34.3298" y="30.208" width="4" height="4" fill="black">
<rect fill="white" x="34.3298" y="30.208" width="4" height="4"/>
<path d="M36.3159 33.1803C36.8606 33.1803 37.3021 32.7388 37.3021 32.1942C37.3021 31.6495 36.8606 31.208 36.3159 31.208C35.7713 31.208 35.3298 31.6495 35.3298 32.1942C35.3298 32.7388 35.7713 33.1803 36.3159 33.1803Z"/>
</mask>
<path d="M36.3159 33.1803C36.8606 33.1803 37.3021 32.7388 37.3021 32.1942C37.3021 31.6495 36.8606 31.208 36.3159 31.208C35.7713 31.208 35.3298 31.6495 35.3298 32.1942C35.3298 32.7388 35.7713 33.1803 36.3159 33.1803Z" fill="#1ACDB8"/>
<path d="M36.3159 33.1803C36.8606 33.1803 37.3021 32.7388 37.3021 32.1942C37.3021 31.6495 36.8606 31.208 36.3159 31.208C35.7713 31.208 35.3298 31.6495 35.3298 32.1942C35.3298 32.7388 35.7713 33.1803 36.3159 33.1803Z" stroke="#1ACDB8" stroke-width="0.4" mask="url(#path-4-outside-3_923_260)"/>
<mask id="path-5-outside-4_923_260" maskUnits="userSpaceOnUse" x="23" y="27.022" width="50" height="46" fill="black">
<rect fill="white" x="23" y="27.022" width="50" height="46"/>
<path d="M71.2569 67.6203C70.9768 67.3418 70.6443 67.1363 70.2781 67.013C70.2757 66.4917 70.07 65.9819 69.6941 65.6061L65.2779 61.1899C66.7903 58.9246 67.6026 56.2611 67.6026 53.4702C67.6026 49.7454 66.1558 46.2473 63.5287 43.6203C60.8978 40.9893 57.3997 39.5404 53.6789 39.5404C49.9581 39.5404 46.4599 40.9893 43.829 43.6203C41.2019 46.2473 39.7552 49.7453 39.7552 53.4702C39.7552 55.2358 40.0807 56.9502 40.7025 58.5453H26.5076C25.8791 58.5453 25.3678 58.034 25.3678 57.4055V35.9667H65.5361V43.027C65.5361 43.4048 65.8423 43.7109 66.22 43.7109C66.5977 43.7109 66.9039 43.4048 66.9039 43.027V30.5296C66.9039 29.1469 65.779 28.022 64.3963 28.022H38.168C37.7902 28.022 37.4841 28.3282 37.4841 28.7059C37.4841 29.0836 37.7902 29.3898 38.168 29.3898H64.3963C65.0248 29.3898 65.5361 29.9011 65.5361 30.5296V34.5989H25.3678V30.5296C25.3678 29.9011 25.8791 29.3898 26.5076 29.3898H34.6686C35.0463 29.3898 35.3525 29.0836 35.3525 28.7059C35.3525 28.3282 35.0463 28.022 34.6686 28.022H26.5076C25.1249 28.022 24 29.1469 24 30.5296V57.4054C24 58.7881 25.1249 59.913 26.5076 59.913H41.3242C41.9722 61.1543 42.8116 62.3027 43.829 63.32C46.4599 65.951 49.958 67.4 53.6789 67.4C56.3779 67.4 58.9593 66.6369 61.1779 65.2141L65.6319 69.6682C66.0078 70.0441 66.5176 70.2498 67.0388 70.2521C67.163 70.6208 67.3703 70.9552 67.6516 71.2364C68.6387 72.2604 70.4272 72.22 71.3562 71.1376C72.252 70.1431 72.2075 68.5651 71.2569 67.6203ZM44.7962 62.3529C42.4275 59.9843 41.1231 56.8297 41.1231 53.4702C41.1231 50.1108 42.4276 46.9562 44.7962 44.5875C47.1688 42.2149 50.3233 40.9082 53.6789 40.9082C57.0344 40.9082 60.189 42.2149 62.5616 44.5875C64.9303 46.9562 66.2347 50.1108 66.2347 53.4702C66.2347 56.8297 64.9302 59.9843 62.5616 62.3529C60.189 64.7256 57.0344 66.0323 53.6789 66.0323C50.3234 66.0323 47.1687 64.7256 44.7962 62.3529ZM70.3398 70.2224C69.9074 70.7253 69.0768 70.747 68.6187 70.2695C68.4328 70.0836 68.3166 69.8475 68.2825 69.5872C68.2285 69.0841 67.6912 68.7254 67.2052 68.8644C66.9855 68.9218 66.7587 68.8608 66.5991 68.7011L62.3062 64.4083C63.0873 63.7911 63.8212 63.0714 64.4539 62.3004L68.7269 66.5734C68.8865 66.7329 68.9475 66.9595 68.8903 67.1792C68.7516 67.6644 69.1087 68.2029 69.6114 68.2567C69.8712 68.2903 70.1068 68.4057 70.2926 68.5905C70.734 69.0291 70.7552 69.7613 70.3398 70.2224Z"/>
</mask>
<path d="M71.2569 67.6203C70.9768 67.3418 70.6443 67.1363 70.2781 67.013C70.2757 66.4917 70.07 65.9819 69.6941 65.6061L65.2779 61.1899C66.7903 58.9246 67.6026 56.2611 67.6026 53.4702C67.6026 49.7454 66.1558 46.2473 63.5287 43.6203C60.8978 40.9893 57.3997 39.5404 53.6789 39.5404C49.9581 39.5404 46.4599 40.9893 43.829 43.6203C41.2019 46.2473 39.7552 49.7453 39.7552 53.4702C39.7552 55.2358 40.0807 56.9502 40.7025 58.5453H26.5076C25.8791 58.5453 25.3678 58.034 25.3678 57.4055V35.9667H65.5361V43.027C65.5361 43.4048 65.8423 43.7109 66.22 43.7109C66.5977 43.7109 66.9039 43.4048 66.9039 43.027V30.5296C66.9039 29.1469 65.779 28.022 64.3963 28.022H38.168C37.7902 28.022 37.4841 28.3282 37.4841 28.7059C37.4841 29.0836 37.7902 29.3898 38.168 29.3898H64.3963C65.0248 29.3898 65.5361 29.9011 65.5361 30.5296V34.5989H25.3678V30.5296C25.3678 29.9011 25.8791 29.3898 26.5076 29.3898H34.6686C35.0463 29.3898 35.3525 29.0836 35.3525 28.7059C35.3525 28.3282 35.0463 28.022 34.6686 28.022H26.5076C25.1249 28.022 24 29.1469 24 30.5296V57.4054C24 58.7881 25.1249 59.913 26.5076 59.913H41.3242C41.9722 61.1543 42.8116 62.3027 43.829 63.32C46.4599 65.951 49.958 67.4 53.6789 67.4C56.3779 67.4 58.9593 66.6369 61.1779 65.2141L65.6319 69.6682C66.0078 70.0441 66.5176 70.2498 67.0388 70.2521C67.163 70.6208 67.3703 70.9552 67.6516 71.2364C68.6387 72.2604 70.4272 72.22 71.3562 71.1376C72.252 70.1431 72.2075 68.5651 71.2569 67.6203ZM44.7962 62.3529C42.4275 59.9843 41.1231 56.8297 41.1231 53.4702C41.1231 50.1108 42.4276 46.9562 44.7962 44.5875C47.1688 42.2149 50.3233 40.9082 53.6789 40.9082C57.0344 40.9082 60.189 42.2149 62.5616 44.5875C64.9303 46.9562 66.2347 50.1108 66.2347 53.4702C66.2347 56.8297 64.9302 59.9843 62.5616 62.3529C60.189 64.7256 57.0344 66.0323 53.6789 66.0323C50.3234 66.0323 47.1687 64.7256 44.7962 62.3529ZM70.3398 70.2224C69.9074 70.7253 69.0768 70.747 68.6187 70.2695C68.4328 70.0836 68.3166 69.8475 68.2825 69.5872C68.2285 69.0841 67.6912 68.7254 67.2052 68.8644C66.9855 68.9218 66.7587 68.8608 66.5991 68.7011L62.3062 64.4083C63.0873 63.7911 63.8212 63.0714 64.4539 62.3004L68.7269 66.5734C68.8865 66.7329 68.9475 66.9595 68.8903 67.1792C68.7516 67.6644 69.1087 68.2029 69.6114 68.2567C69.8712 68.2903 70.1068 68.4057 70.2926 68.5905C70.734 69.0291 70.7552 69.7613 70.3398 70.2224Z" fill="#1ACDB8"/>
<path d="M71.2569 67.6203C70.9768 67.3418 70.6443 67.1363 70.2781 67.013C70.2757 66.4917 70.07 65.9819 69.6941 65.6061L65.2779 61.1899C66.7903 58.9246 67.6026 56.2611 67.6026 53.4702C67.6026 49.7454 66.1558 46.2473 63.5287 43.6203C60.8978 40.9893 57.3997 39.5404 53.6789 39.5404C49.9581 39.5404 46.4599 40.9893 43.829 43.6203C41.2019 46.2473 39.7552 49.7453 39.7552 53.4702C39.7552 55.2358 40.0807 56.9502 40.7025 58.5453H26.5076C25.8791 58.5453 25.3678 58.034 25.3678 57.4055V35.9667H65.5361V43.027C65.5361 43.4048 65.8423 43.7109 66.22 43.7109C66.5977 43.7109 66.9039 43.4048 66.9039 43.027V30.5296C66.9039 29.1469 65.779 28.022 64.3963 28.022H38.168C37.7902 28.022 37.4841 28.3282 37.4841 28.7059C37.4841 29.0836 37.7902 29.3898 38.168 29.3898H64.3963C65.0248 29.3898 65.5361 29.9011 65.5361 30.5296V34.5989H25.3678V30.5296C25.3678 29.9011 25.8791 29.3898 26.5076 29.3898H34.6686C35.0463 29.3898 35.3525 29.0836 35.3525 28.7059C35.3525 28.3282 35.0463 28.022 34.6686 28.022H26.5076C25.1249 28.022 24 29.1469 24 30.5296V57.4054C24 58.7881 25.1249 59.913 26.5076 59.913H41.3242C41.9722 61.1543 42.8116 62.3027 43.829 63.32C46.4599 65.951 49.958 67.4 53.6789 67.4C56.3779 67.4 58.9593 66.6369 61.1779 65.2141L65.6319 69.6682C66.0078 70.0441 66.5176 70.2498 67.0388 70.2521C67.163 70.6208 67.3703 70.9552 67.6516 71.2364C68.6387 72.2604 70.4272 72.22 71.3562 71.1376C72.252 70.1431 72.2075 68.5651 71.2569 67.6203ZM44.7962 62.3529C42.4275 59.9843 41.1231 56.8297 41.1231 53.4702C41.1231 50.1108 42.4276 46.9562 44.7962 44.5875C47.1688 42.2149 50.3233 40.9082 53.6789 40.9082C57.0344 40.9082 60.189 42.2149 62.5616 44.5875C64.9303 46.9562 66.2347 50.1108 66.2347 53.4702C66.2347 56.8297 64.9302 59.9843 62.5616 62.3529C60.189 64.7256 57.0344 66.0323 53.6789 66.0323C50.3234 66.0323 47.1687 64.7256 44.7962 62.3529ZM70.3398 70.2224C69.9074 70.7253 69.0768 70.747 68.6187 70.2695C68.4328 70.0836 68.3166 69.8475 68.2825 69.5872C68.2285 69.0841 67.6912 68.7254 67.2052 68.8644C66.9855 68.9218 66.7587 68.8608 66.5991 68.7011L62.3062 64.4083C63.0873 63.7911 63.8212 63.0714 64.4539 62.3004L68.7269 66.5734C68.8865 66.7329 68.9475 66.9595 68.8903 67.1792C68.7516 67.6644 69.1087 68.2029 69.6114 68.2567C69.8712 68.2903 70.1068 68.4057 70.2926 68.5905C70.734 69.0291 70.7552 69.7613 70.3398 70.2224Z" stroke="#1ACDB8" stroke-width="0.4" mask="url(#path-5-outside-4_923_260)"/>
<mask id="path-6-outside-5_923_260" maskUnits="userSpaceOnUse" x="41.5009" y="41.2922" width="24" height="24" fill="black">
<rect fill="white" x="41.5009" y="41.2922" width="24" height="24"/>
<path d="M61.583 45.5662C59.4717 43.4549 56.6647 42.2922 53.679 42.2922C50.6933 42.2922 47.8862 43.4549 45.7749 45.5662C43.6637 47.6774 42.5009 50.4845 42.5009 53.4702C42.5009 56.456 43.6637 59.263 45.7749 61.3743C47.0107 62.6101 48.4669 63.5159 50.103 64.0665C50.461 64.1871 50.8489 63.9945 50.9694 63.6365C51.0898 63.2785 50.8973 62.8906 50.5393 62.7701C49.1049 62.2874 47.8274 61.4924 46.7422 60.4072C44.8892 58.5542 43.8688 56.0907 43.8688 53.4703C43.8688 50.8499 44.8893 48.3864 46.7422 46.5335C48.595 44.6806 51.0586 43.6602 53.679 43.6602C56.2994 43.6602 58.7629 44.6807 60.6159 46.5335C64.4409 50.3585 64.4409 56.5822 60.6159 60.4072C58.7629 62.26 56.2994 63.2804 53.679 63.2804C53.3013 63.2804 52.9951 63.5866 52.9951 63.9643C52.9951 64.342 53.3013 64.6482 53.679 64.6482C56.6648 64.6482 59.4717 63.4855 61.583 61.3743C65.9412 57.016 65.9412 49.9245 61.583 45.5662Z"/>
</mask>
<path d="M61.583 45.5662C59.4717 43.4549 56.6647 42.2922 53.679 42.2922C50.6933 42.2922 47.8862 43.4549 45.7749 45.5662C43.6637 47.6774 42.5009 50.4845 42.5009 53.4702C42.5009 56.456 43.6637 59.263 45.7749 61.3743C47.0107 62.6101 48.4669 63.5159 50.103 64.0665C50.461 64.1871 50.8489 63.9945 50.9694 63.6365C51.0898 63.2785 50.8973 62.8906 50.5393 62.7701C49.1049 62.2874 47.8274 61.4924 46.7422 60.4072C44.8892 58.5542 43.8688 56.0907 43.8688 53.4703C43.8688 50.8499 44.8893 48.3864 46.7422 46.5335C48.595 44.6806 51.0586 43.6602 53.679 43.6602C56.2994 43.6602 58.7629 44.6807 60.6159 46.5335C64.4409 50.3585 64.4409 56.5822 60.6159 60.4072C58.7629 62.26 56.2994 63.2804 53.679 63.2804C53.3013 63.2804 52.9951 63.5866 52.9951 63.9643C52.9951 64.342 53.3013 64.6482 53.679 64.6482C56.6648 64.6482 59.4717 63.4855 61.583 61.3743C65.9412 57.016 65.9412 49.9245 61.583 45.5662Z" fill="#1ACDB8"/>
<path d="M61.583 45.5662C59.4717 43.4549 56.6647 42.2922 53.679 42.2922C50.6933 42.2922 47.8862 43.4549 45.7749 45.5662C43.6637 47.6774 42.5009 50.4845 42.5009 53.4702C42.5009 56.456 43.6637 59.263 45.7749 61.3743C47.0107 62.6101 48.4669 63.5159 50.103 64.0665C50.461 64.1871 50.8489 63.9945 50.9694 63.6365C51.0898 63.2785 50.8973 62.8906 50.5393 62.7701C49.1049 62.2874 47.8274 61.4924 46.7422 60.4072C44.8892 58.5542 43.8688 56.0907 43.8688 53.4703C43.8688 50.8499 44.8893 48.3864 46.7422 46.5335C48.595 44.6806 51.0586 43.6602 53.679 43.6602C56.2994 43.6602 58.7629 44.6807 60.6159 46.5335C64.4409 50.3585 64.4409 56.5822 60.6159 60.4072C58.7629 62.26 56.2994 63.2804 53.679 63.2804C53.3013 63.2804 52.9951 63.5866 52.9951 63.9643C52.9951 64.342 53.3013 64.6482 53.679 64.6482C56.6648 64.6482 59.4717 63.4855 61.583 61.3743C65.9412 57.016 65.9412 49.9245 61.583 45.5662Z" stroke="#1ACDB8" stroke-width="0.4" mask="url(#path-6-outside-5_923_260)"/>
<mask id="path-7-outside-6_923_260" maskUnits="userSpaceOnUse" x="50.0795" y="49.1116" width="5" height="8" fill="black">
<rect fill="white" x="50.0795" y="49.1116" width="5" height="8"/>
<path d="M54.7013 56.1449C54.7013 55.7671 54.3951 55.4609 54.0174 55.4609H52.4473V54.1541H53.8512C54.2289 54.1541 54.5351 53.8479 54.5351 53.4702C54.5351 53.0924 54.2289 52.7863 53.8512 52.7863H52.4473V51.4794H54.0174C54.3951 51.4794 54.7013 51.1732 54.7013 50.7955C54.7013 50.4178 54.3951 50.1116 54.0174 50.1116H51.7634C51.3857 50.1116 51.0795 50.4178 51.0795 50.7955V56.1449C51.0795 56.5227 51.3857 56.8289 51.7634 56.8289H54.0174C54.3951 56.8288 54.7013 56.5226 54.7013 56.1449Z"/>
</mask>
<path d="M54.7013 56.1449C54.7013 55.7671 54.3951 55.4609 54.0174 55.4609H52.4473V54.1541H53.8512C54.2289 54.1541 54.5351 53.8479 54.5351 53.4702C54.5351 53.0924 54.2289 52.7863 53.8512 52.7863H52.4473V51.4794H54.0174C54.3951 51.4794 54.7013 51.1732 54.7013 50.7955C54.7013 50.4178 54.3951 50.1116 54.0174 50.1116H51.7634C51.3857 50.1116 51.0795 50.4178 51.0795 50.7955V56.1449C51.0795 56.5227 51.3857 56.8289 51.7634 56.8289H54.0174C54.3951 56.8288 54.7013 56.5226 54.7013 56.1449Z" fill="#1ACDB8"/>
<path d="M54.7013 56.1449C54.7013 55.7671 54.3951 55.4609 54.0174 55.4609H52.4473V54.1541H53.8512C54.2289 54.1541 54.5351 53.8479 54.5351 53.4702C54.5351 53.0924 54.2289 52.7863 53.8512 52.7863H52.4473V51.4794H54.0174C54.3951 51.4794 54.7013 51.1732 54.7013 50.7955C54.7013 50.4178 54.3951 50.1116 54.0174 50.1116H51.7634C51.3857 50.1116 51.0795 50.4178 51.0795 50.7955V56.1449C51.0795 56.5227 51.3857 56.8289 51.7634 56.8289H54.0174C54.3951 56.8288 54.7013 56.5226 54.7013 56.1449Z" stroke="#1ACDB8" stroke-width="0.4" mask="url(#path-7-outside-6_923_260)"/>
<mask id="path-8-outside-7_923_260" maskUnits="userSpaceOnUse" x="43.9647" y="49.0869" width="7" height="8" fill="black">
<rect fill="white" x="43.9647" y="49.0869" width="7" height="8"/>
<path d="M47.53 55.4856C46.9959 55.4856 46.482 55.2705 46.1554 54.91C45.9018 54.6302 45.4693 54.6089 45.1893 54.8625C44.9095 55.1162 44.8882 55.5486 45.1418 55.8286C45.7234 56.4703 46.6162 56.8534 47.5299 56.8534C48.672 56.8534 49.6312 56.1242 49.8106 55.1196C49.9456 54.3632 49.6028 53.3754 48.2353 52.871C47.5738 52.627 46.9578 52.3613 46.767 52.2778C46.6246 52.1626 46.6295 52.0023 46.639 51.9356C46.6525 51.842 46.7206 51.6133 47.062 51.5104C47.8171 51.2829 48.5183 51.8354 48.5394 51.8522C48.8284 52.0921 49.2573 52.0538 49.4995 51.7659C49.7425 51.4768 49.7051 51.0453 49.416 50.8023C49.3648 50.7593 48.1471 49.755 46.6675 50.2008C45.9189 50.4263 45.3892 51.0166 45.2851 51.7413C45.1823 52.451 45.517 53.1607 46.1494 53.5004C46.1806 53.5143 46.9243 53.8454 47.7619 54.1543C47.9965 54.2408 48.5344 54.4847 48.464 54.8792C48.411 55.1774 48.047 55.4856 47.53 55.4856Z"/>
</mask>
<path d="M47.53 55.4856C46.9959 55.4856 46.482 55.2705 46.1554 54.91C45.9018 54.6302 45.4693 54.6089 45.1893 54.8625C44.9095 55.1162 44.8882 55.5486 45.1418 55.8286C45.7234 56.4703 46.6162 56.8534 47.5299 56.8534C48.672 56.8534 49.6312 56.1242 49.8106 55.1196C49.9456 54.3632 49.6028 53.3754 48.2353 52.871C47.5738 52.627 46.9578 52.3613 46.767 52.2778C46.6246 52.1626 46.6295 52.0023 46.639 51.9356C46.6525 51.842 46.7206 51.6133 47.062 51.5104C47.8171 51.2829 48.5183 51.8354 48.5394 51.8522C48.8284 52.0921 49.2573 52.0538 49.4995 51.7659C49.7425 51.4768 49.7051 51.0453 49.416 50.8023C49.3648 50.7593 48.1471 49.755 46.6675 50.2008C45.9189 50.4263 45.3892 51.0166 45.2851 51.7413C45.1823 52.451 45.517 53.1607 46.1494 53.5004C46.1806 53.5143 46.9243 53.8454 47.7619 54.1543C47.9965 54.2408 48.5344 54.4847 48.464 54.8792C48.411 55.1774 48.047 55.4856 47.53 55.4856Z" fill="#1ACDB8"/>
<path d="M47.53 55.4856C46.9959 55.4856 46.482 55.2705 46.1554 54.91C45.9018 54.6302 45.4693 54.6089 45.1893 54.8625C44.9095 55.1162 44.8882 55.5486 45.1418 55.8286C45.7234 56.4703 46.6162 56.8534 47.5299 56.8534C48.672 56.8534 49.6312 56.1242 49.8106 55.1196C49.9456 54.3632 49.6028 53.3754 48.2353 52.871C47.5738 52.627 46.9578 52.3613 46.767 52.2778C46.6246 52.1626 46.6295 52.0023 46.639 51.9356C46.6525 51.842 46.7206 51.6133 47.062 51.5104C47.8171 51.2829 48.5183 51.8354 48.5394 51.8522C48.8284 52.0921 49.2573 52.0538 49.4995 51.7659C49.7425 51.4768 49.7051 51.0453 49.416 50.8023C49.3648 50.7593 48.1471 49.755 46.6675 50.2008C45.9189 50.4263 45.3892 51.0166 45.2851 51.7413C45.1823 52.451 45.517 53.1607 46.1494 53.5004C46.1806 53.5143 46.9243 53.8454 47.7619 54.1543C47.9965 54.2408 48.5344 54.4847 48.464 54.8792C48.411 55.1774 48.047 55.4856 47.53 55.4856Z" stroke="#1ACDB8" stroke-width="0.4" mask="url(#path-8-outside-7_923_260)"/>
<mask id="path-9-outside-8_923_260" maskUnits="userSpaceOnUse" x="54.665" y="49.0869" width="8" height="8" fill="black">
<rect fill="white" x="54.665" y="49.0869" width="8" height="8"/>
<path d="M62.4316 53.4703C62.4316 51.6047 60.9139 50.0869 59.0482 50.0869C57.1827 50.0869 55.665 51.6046 55.665 53.4703C55.665 55.3358 57.1827 56.8535 59.0482 56.8535C60.9139 56.8535 62.4316 55.3358 62.4316 53.4703ZM57.0329 53.4703C57.0329 52.3589 57.937 51.4547 59.0483 51.4547C60.1596 51.4547 61.0639 52.3589 61.0639 53.4703C61.0639 54.5816 60.1597 55.4857 59.0483 55.4857C57.937 55.4857 57.0329 54.5816 57.0329 53.4703Z"/>
</mask>
<path d="M62.4316 53.4703C62.4316 51.6047 60.9139 50.0869 59.0482 50.0869C57.1827 50.0869 55.665 51.6046 55.665 53.4703C55.665 55.3358 57.1827 56.8535 59.0482 56.8535C60.9139 56.8535 62.4316 55.3358 62.4316 53.4703ZM57.0329 53.4703C57.0329 52.3589 57.937 51.4547 59.0483 51.4547C60.1596 51.4547 61.0639 52.3589 61.0639 53.4703C61.0639 54.5816 60.1597 55.4857 59.0483 55.4857C57.937 55.4857 57.0329 54.5816 57.0329 53.4703Z" fill="#1ACDB8"/>
<path d="M62.4316 53.4703C62.4316 51.6047 60.9139 50.0869 59.0482 50.0869C57.1827 50.0869 55.665 51.6046 55.665 53.4703C55.665 55.3358 57.1827 56.8535 59.0482 56.8535C60.9139 56.8535 62.4316 55.3358 62.4316 53.4703ZM57.0329 53.4703C57.0329 52.3589 57.937 51.4547 59.0483 51.4547C60.1596 51.4547 61.0639 52.3589 61.0639 53.4703C61.0639 54.5816 60.1597 55.4857 59.0483 55.4857C57.937 55.4857 57.0329 54.5816 57.0329 53.4703Z" stroke="#1ACDB8" stroke-width="0.4" mask="url(#path-9-outside-8_923_260)"/>
<mask id="path-10-outside-9_923_260" maskUnits="userSpaceOnUse" x="25.8566" y="36.4354" width="15" height="15" fill="black">
<rect fill="white" x="25.8566" y="36.4354" width="15" height="15"/>
<path d="M39.9432 43.9787C39.9432 40.3707 37.0079 37.4354 33.3999 37.4354C29.7919 37.4354 26.8566 40.3707 26.8566 43.9787C26.8566 47.5867 29.7919 50.522 33.3999 50.522C37.0079 50.522 39.9432 47.5867 39.9432 43.9787ZM38.5288 43.2948H37.0581C36.981 41.917 36.6716 40.6313 36.1669 39.6084C37.4304 40.4111 38.3233 41.7455 38.5288 43.2948ZM32.716 39.0681V43.2948H31.1115C31.2395 41.2178 31.9381 39.6624 32.716 39.0681ZM32.716 44.6626V48.8892C31.9381 48.295 31.2395 46.7395 31.1116 44.6626H32.716ZM34.0838 48.8893V44.6626H35.6883C35.5604 46.7396 34.8618 48.295 34.0838 48.8893ZM34.0838 43.2948V39.0681C34.8618 39.6624 35.5604 41.2178 35.6883 43.2948H34.0838ZM30.6329 39.6084C30.1282 40.6313 29.8188 41.917 29.7417 43.2948H28.271C28.4766 41.7455 29.3695 40.4111 30.6329 39.6084ZM28.271 44.6626H29.7417C29.8188 46.0404 30.1282 47.3261 30.633 48.3491C29.3695 47.5463 28.4766 46.2119 28.271 44.6626ZM36.1669 48.3491C36.6716 47.3261 36.9811 46.0404 37.0581 44.6626H38.5288C38.3233 46.2119 37.4304 47.5463 36.1669 48.3491Z"/>
</mask>
<path d="M39.9432 43.9787C39.9432 40.3707 37.0079 37.4354 33.3999 37.4354C29.7919 37.4354 26.8566 40.3707 26.8566 43.9787C26.8566 47.5867 29.7919 50.522 33.3999 50.522C37.0079 50.522 39.9432 47.5867 39.9432 43.9787ZM38.5288 43.2948H37.0581C36.981 41.917 36.6716 40.6313 36.1669 39.6084C37.4304 40.4111 38.3233 41.7455 38.5288 43.2948ZM32.716 39.0681V43.2948H31.1115C31.2395 41.2178 31.9381 39.6624 32.716 39.0681ZM32.716 44.6626V48.8892C31.9381 48.295 31.2395 46.7395 31.1116 44.6626H32.716ZM34.0838 48.8893V44.6626H35.6883C35.5604 46.7396 34.8618 48.295 34.0838 48.8893ZM34.0838 43.2948V39.0681C34.8618 39.6624 35.5604 41.2178 35.6883 43.2948H34.0838ZM30.6329 39.6084C30.1282 40.6313 29.8188 41.917 29.7417 43.2948H28.271C28.4766 41.7455 29.3695 40.4111 30.6329 39.6084ZM28.271 44.6626H29.7417C29.8188 46.0404 30.1282 47.3261 30.633 48.3491C29.3695 47.5463 28.4766 46.2119 28.271 44.6626ZM36.1669 48.3491C36.6716 47.3261 36.9811 46.0404 37.0581 44.6626H38.5288C38.3233 46.2119 37.4304 47.5463 36.1669 48.3491Z" fill="#1ACDB8"/>
<path d="M39.9432 43.9787C39.9432 40.3707 37.0079 37.4354 33.3999 37.4354C29.7919 37.4354 26.8566 40.3707 26.8566 43.9787C26.8566 47.5867 29.7919 50.522 33.3999 50.522C37.0079 50.522 39.9432 47.5867 39.9432 43.9787ZM38.5288 43.2948H37.0581C36.981 41.917 36.6716 40.6313 36.1669 39.6084C37.4304 40.4111 38.3233 41.7455 38.5288 43.2948ZM32.716 39.0681V43.2948H31.1115C31.2395 41.2178 31.9381 39.6624 32.716 39.0681ZM32.716 44.6626V48.8892C31.9381 48.295 31.2395 46.7395 31.1116 44.6626H32.716ZM34.0838 48.8893V44.6626H35.6883C35.5604 46.7396 34.8618 48.295 34.0838 48.8893ZM34.0838 43.2948V39.0681C34.8618 39.6624 35.5604 41.2178 35.6883 43.2948H34.0838ZM30.6329 39.6084C30.1282 40.6313 29.8188 41.917 29.7417 43.2948H28.271C28.4766 41.7455 29.3695 40.4111 30.6329 39.6084ZM28.271 44.6626H29.7417C29.8188 46.0404 30.1282 47.3261 30.633 48.3491C29.3695 47.5463 28.4766 46.2119 28.271 44.6626ZM36.1669 48.3491C36.6716 47.3261 36.9811 46.0404 37.0581 44.6626H38.5288C38.3233 46.2119 37.4304 47.5463 36.1669 48.3491Z" stroke="#1ACDB8" stroke-width="0.4" mask="url(#path-10-outside-9_923_260)"/>
<mask id="path-11-outside-10_923_260" maskUnits="userSpaceOnUse" x="26.5882" y="51.9423" width="12" height="3" fill="black">
<rect fill="white" x="26.5882" y="51.9423" width="12" height="3"/>
<path d="M37.986 53.6262C37.986 53.2484 37.6798 52.9423 37.3021 52.9423H28.2721C27.8944 52.9423 27.5882 53.2484 27.5882 53.6262C27.5882 54.0039 27.8944 54.3101 28.2721 54.3101H37.3021C37.6797 54.3101 37.986 54.0039 37.986 53.6262Z"/>
</mask>
<path d="M37.986 53.6262C37.986 53.2484 37.6798 52.9423 37.3021 52.9423H28.2721C27.8944 52.9423 27.5882 53.2484 27.5882 53.6262C27.5882 54.0039 27.8944 54.3101 28.2721 54.3101H37.3021C37.6797 54.3101 37.986 54.0039 37.986 53.6262Z" fill="#1ACDB8"/>
<path d="M37.986 53.6262C37.986 53.2484 37.6798 52.9423 37.3021 52.9423H28.2721C27.8944 52.9423 27.5882 53.2484 27.5882 53.6262C27.5882 54.0039 27.8944 54.3101 28.2721 54.3101H37.3021C37.6797 54.3101 37.986 54.0039 37.986 53.6262Z" stroke="#1ACDB8" stroke-width="0.4" mask="url(#path-11-outside-10_923_260)"/>
<mask id="path-12-outside-11_923_260" maskUnits="userSpaceOnUse" x="26.5881" y="54.868" width="6" height="3" fill="black">
<rect fill="white" x="26.5881" y="54.868" width="6" height="3"/>
<path d="M28.272 55.868C27.8943 55.868 27.5881 56.1742 27.5881 56.5519C27.5881 56.9297 27.8943 57.2359 28.272 57.2359H31.0423C31.42 57.2359 31.7262 56.9297 31.7262 56.5519C31.7262 56.1742 31.42 55.868 31.0423 55.868H28.272Z"/>
</mask>
<path d="M28.272 55.868C27.8943 55.868 27.5881 56.1742 27.5881 56.5519C27.5881 56.9297 27.8943 57.2359 28.272 57.2359H31.0423C31.42 57.2359 31.7262 56.9297 31.7262 56.5519C31.7262 56.1742 31.42 55.868 31.0423 55.868H28.272Z" fill="#1ACDB8"/>
<path d="M28.272 55.868C27.8943 55.868 27.5881 56.1742 27.5881 56.5519C27.5881 56.9297 27.8943 57.2359 28.272 57.2359H31.0423C31.42 57.2359 31.7262 56.9297 31.7262 56.5519C31.7262 56.1742 31.42 55.868 31.0423 55.868H28.272Z" stroke="#1ACDB8" stroke-width="0.4" mask="url(#path-12-outside-11_923_260)"/>
</g>
<defs>
<filter id="filter0_d_923_260" x="0" y="0" width="90" height="90" filterUnits="userSpaceOnUse" color-interpolation-filters="sRGB">
<feFlood flood-opacity="0" result="BackgroundImageFix"/>
<feColorMatrix in="SourceAlpha" type="matrix" values="0 0 0 0 0 0 0 0 0 0 0 0 0 0 0 0 0 0 127 0" result="hardAlpha"/>
<feOffset/>
<feGaussianBlur stdDeviation="2.5"/>
<feComposite in2="hardAlpha" operator="out"/>
<feColorMatrix type="matrix" values="0 0 0 0 0 0 0 0 0 0 0 0 0 0 0 0 0 0 0.25 0"/>
<feBlend mode="normal" in2="BackgroundImageFix" result="effect1_dropShadow_923_260"/>
<feBlend mode="normal" in="SourceGraphic" in2="effect1_dropShadow_923_260" result="shape"/>
</filter>
<radialGradient id="paint0_radial_923_260" cx="0" cy="0" r="1" gradientUnits="userSpaceOnUse" gradientTransform="translate(45 45) rotate(90) scale(47.5)">
<stop stop-color="white"/>
<stop offset="1" stop-color="#EDEDED"/>
</radialGradient>
<clipPath id="clip0_923_260">
<rect width="48" height="48" fill="white" transform="translate(24 26)"/>
</clipPath>
</defs>
</svg>
